/* XPM */
static char *_091_07f4d7a1d0df9c35b822441f9ffc0d0d998673ee832e851422aa177dd61ca2f5_1[] = {
/* columns rows colors chars-per-pixel */
"32 32 256 2 ",
"   c black",
".  c #000801",
"X  c #000D02",
"o  c #001003",
"O  c #001003",
"+  c #001003",
"@  c #001103",
"#  c #001704",
"$  c #001F06",
"%  c #012507",
"&  c #032908",
"*  c #062507",
"=  c #0A2007",
"-  c #111806",
";  c #190D04",
":  c #1C0C04",
">  c #1E0B04",
",  c #200A04",
"<  c #220A04",
"1  c #230905",
"2  c #250905",
"3  c #260A05",
"4  c #270A05",
"5  c #280A05",
"6  c #280A05",
"7  c #280A05",
"8  c #280A05",
"9  c #280B06",
"0  c #290B06",
"q  c #290B06",
"w  c #290B06",
"e  c #290B06",
"r  c #290B06",
"t  c #2B0B07",
"y  c #2E0B09",
"u  c #330B0B",
"i  c #390B0F",
"p  c #3F0C12",
"a  c #4B0B18",
"s  c #560A1D",
"d  c #5F0A21",
"f  c #670925",
"g  c #6B0826",
"h  c #680926",
"j  c #610B23",
"k  c #5A0D21",
"l  c #520F1F",
"z  c #4B111C",
"x  c #44121A",
"c  c #3D1518",
"v  c #3A1617",
"b  c #371816",
"n  c #331915",
"m  c #301B14",
"M  c #2D1C13",
"N  c #2E1D12",
"B  c #2E1F13",
"V  c #2E2113",
"C  c #2E2213",
"Z  c #2D2413",
"A  c #2D2514",
"S  c #2E2514",
"D  c #2E2615",
"F  c #2E2715",
"G  c #2E2816",
"H  c #2F2816",
"J  c #2F2916",
"K  c #2F2A17",
"L  c #2E2B17",
"P  c #2E2D18",
"I  c #2E2F19",
"U  c #2E3019",
"Y  c #2E3219",
"T  c #2E331A",
"R  c #2E341A",
"E  c #2E351B",
"W  c #2D371D",
"Q  c #2D3A20",
"!  c #2B3E23",
"~  c #294226",
"^  c #284629",
"/  c #254A2D",
"(  c #244E31",
")  c #215334",
"_  c #1F5939",
"`  c #1B6140",
"'  c #186744",
"]  c #156C48",
"[  c #14704B",
"{  c #12744F",
"}  c #117852",
"|  c #117953",
" . c #127954",
".. c #137954",
"X. c #147955",
"o. c #167955",
"O. c #187855",
"+. c #1B7856",
"@. c #1F7757",
"#. c #217658",
"$. c #247658",
"%. c #277659",
"&. c #2A755A",
"*. c #2E755B",
"=. c #31745C",
"-. c #36745D",
";. c #3A745F",
":. c #3F7360",
">. c #447362",
",. c #4A7364",
"<. c #4F7366",
"1. c #567268",
"2. c #5C726A",
"3. c #63726D",
"4. c #6E746E",
"5. c #79766F",
"6. c #7D786E",
"7. c #807A6E",
"8. c #847C6D",
"9. c #897F6B",
"0. c #8D8169",
"q. c #918367",
"w. c #958564",
"e. c #998762",
"r. c #9C8960",
"t. c #9F8A5D",
"y. c #A18B5C",
"u. c #A38C5A",
"i. c #A48C59",
"p. c #A48C59",
"a. c #A58C58",
"s. c #A58C58",
"d. c #A58C58",
"f. c #A58C58",
"g. c #A58C58",
"h. c #A58C58",
"j. c #A58C58",
"k. c #A58C58",
"l. c #A58C58",
"z. c #A58C58",
"x. c #A58C58",
"c. c #A58D58",
"v. c #A58D58",
"b. c #A58D58",
"n. c #A58D58",
"m. c #A58D58",
"M. c #A58D58",
"N. c #A58D58",
"B. c #A58D58",
"V. c #A58D58",
"C. c #A58D58",
"Z. c #A58D59",
"A. c #A58D5A",
"S. c #A58D5B",
"D. c #A48E5D",
"F. c #A48E60",
"G. c #A48F64",
"H. c #A39069",
"J. c #A3926D",
"K. c #A39373",
"L. c #A39578",
"P. c #A3977E",
"I. c #A39984",
"U. c #A49B89",
"Y. c #A49D8D",
"T. c #A59F92",
"R. c #A6A197",
"E. c #A6A39D",
"W. c #A7A6A2",
"Q. c #A9A9A9",
"!. c #AAAAAA",
"~. c gray67",
"^. c #ACACAC",
"/. c gray68",
"(. c #AEAEAE",
"). c #AFAFAF",
"_. c gray69",
"`. c #B1B1B1",
"'. c #B2B2B2",
"]. c gray70",
"[. c #B4B4B4",
"{. c gray71",
"}. c #B6B6B6",
"|. c #B7B7B7",
" X c gray72",
".X c #B9B9B9",
"XX c gray73",
"oX c #BBBBBB",
"OX c #BCBCBC",
"+X c gray74",
"@X c gray",
"#X c gray75",
"$X c #C0C0C0",
"%X c #C1C1C1",
"&X c gray76",
"*X c #C3C3C3",
"=X c gray78",
"-X c #D2D2D2",
";X c #DDDDDD",
":X c #E7E7E7",
">X c #EFEFEF",
",X c #F6F6F6",
"<X c gray98",
"1X c gray99",
"2X c #FDFDFD",
"3X c #FEFEFE",
"4X c #FEFEFE",
"5X c #FEFEFE",
"6X c #FEFEFE",
"7X c #FEFEFE",
"8X c #FEFEFE",
"9X c #FEFEFE",
"0X c #FEFEFE",
"qX c #FEFEFE",
"wX c #FEFEFE",
"eX c #FEFEFE",
"rX c #FEFEFE",
"tX c #FEFEFE",
"yX c #FEFEFE",
"uX c #FEFEFE",
"iX c #FEFEFE",
"pX c #FEFEFE",
"aX c white",
"sX c white",
"dX c white",
"fX c white",
"gX c white",
"hX c white",
"jX c white",
"kX c white",
"lX c white",
"zX c white",
"xX c white",
"cX c white",
"vX c white",
"bX c white",
"nX c white",
"mX c white",
"MX c white",
"NX c white",
"BX c white",
"VX c white",
"CX c white",
"ZX c white",
"AX c white",
"SX c white",
"DX c white",
"FX c white",
"GX c white",
"HX c white",
"JX c white",
"KX c white",
"LX c white",
"PX c white",
"IX c white",
"UX c white",
/* pixels */
"MXMXMXMXMXMXMXMXMXMXMXMXMXMXMXMXMXMXMXMXMXMXMXMXMXMXMXMXMXMXMXMX",
"MXMXMXMXMXMXMXMXMXMXMXMXMXMXMXMXMXMXMXMXMXMXMXMXMXMXMXMXMXMXMXMX",
"MXMXMXMXMXMXMXMXMXMXMXMXMXMXMXMXMXMXMXMXMXMXMXMXMXMXMXMXMXMXMXMX",
"MXMXMXMXMXMXMXMXMXMXMXMXMXMXMXr , r MXMXMXMXMXMXMXMXMXMXMXMXMXMX",
"MXMXMXMXMXMXMXMXMXMXMXMXMXMX+ , , , + MXMXMXMXMXMXMXMXMXMXMXMXMX",
"MXMXMXMXMXMXMXMXMXMXMXMXMXMX+ Z N N + MXMXMXMXMXMXMXMXMXMXMXMXMX",
"MXMXMXMXMXMXMXMXMXMXMXMXMXMXMX+ N + MXMXMXMXMXMXMXMXMXMXMXMXMXMX",
"MXMXMXMXMXMXMXMXMXMXMXMXMXMXMX+ % + MXMXMXMXMXMXMXMXMXMXMXMXMXMX",
"MXMXMXMXMXMXMXMXMXMXMXMXMXMXMX+ % + MXMXMXMXMXMXMXMXMXMXMXMXMXMX",
"MXMXMXMXMXMXMXMXMXMXMXMXMXMXMX+ % + MXMXMXMXMXMXMXMXMXMXMXMXMXMX",
"MXMXMXMXMXMXMXMXMXMXMXMXMXMX+ & % % + MXMXMXMXMXMXMXMXMXMXMXMXMX",
"MXMXMXMXMXMXMXMXMXMXMXMXMX+ & MX% % & + MXMXMXMXMXMXMXMXMXMXMXMX",
"MXMXMXMXMXMXMXMXMXMXMXMXMX+ MXG M M R + MXMXMXMXMXMXMXMXMXMXMXMX",
"MXMXMXMXMXMXMXMXMXMXMXMXMX+ R G M M H + MXMXMXMXMXMXMXMXMXMXMXMX",
"MXMXMXMXMXMXMXMXMXMXMXMXMXr r r r r r r MXMXMXMXMXMXMXMXMXMXMXMX",
"MXMXMXMXMXMXMXMXMXMXMXMXMXr N.N.N.N.N.r MXMXMXMXMXMXMXMXMXMXMXMX",
"MXMXMXMXMXMXMXMXMXMXMXMXMXr N.N.| N.N.r MXMXMXMXMXMXMXMXMXMXMXMX",
"MXMXMXMXMXMXMXMXMXMXMXMXMXr g g N.| N.r MXMXMXMXMXMXMXMXMXMXMXMX",
"MXMXMXMXMXMXMXMXMXMXMXMXMXr g g N.g g r MXMXMXMXMXMXMXMXMXMXMXMX",
"MXMXMXMXMXMXMXMXMXMXMXMXMXr N.N.N.g g r MXMXMXMXMXMXMXMXMXMXMXMX",
"MXMXMXMXMXMXMXMXMXMXMXMXMXr N.N.N.N.N.r MXMXMXMXMXMXMXMXMXMXMXMX",
"MXMXMXMXMXMXMXMXMXMXMXMXMXr r r r r r r MXMXMXMXMXMXMXMXMXMXMXMX",
"MXMXMXMXMXMXMXMXMXMXMXMXMX+ R H n n R + MXMXMXMXMXMXMXMXMXMXMXMX",
"MXMXMXMXMXMXMXMXMXMXMXMXMX+ R H n n R + MXMXMXMXMXMXMXMXMXMXMXMX",
"MXMXMXMXMXMXMXMXMXMXMXMXMX+ R H n n R + MXMXMXMXMXMXMXMXMXMXMXMX",
"MXMXMXMXMXMXMXMXMXMXMXMXMX+ R H n n MX+ MXMXMXMXMXMXMXMXMXMXMXMX",
"MXMXMXMXMXMXMXMXMXMXMXMXMXMX+ H n MX+ MXMXMXMXMXMXMXMXMXMXMXMXMX",
"MXMXMXMXMXMXMXMXMXMXMXMXMXMXMX+ + + MXMXMXMXMXMXMXMXMXMXMXMXMXMX",
"MXMXMXMXMXMXMXMXMXMXMXMXMXMXMXMXMXMXMXMXMXMXMXMXMXMXMXMXMXMXMXMX",
"MXMXMXMXMXMXMXMXMXMXMXMXMXMXMXMXMXMXMXMXMXMXMXMXMXMXMXMXMXMXMXMX",
"MXMXMXMXMXMXMXMXMXMXMXMXMXMXMXMXMXMXMXMXMXMXMXMXMXMXMXMXMXMXMXMX",
"MXMXMXMXMXMXMXMXMXMXMXMXMXMXMXMXMXMXMXMXMXMXMXMXMXMXMXMXMXMXMXMX"
};
