/* XPM */
static char *_091_07f4d7a1d0df9c35b822441f9ffc0d0d998673ee832e851422aa177dd61ca2f5_2[] = {
/* columns rows colors chars-per-pixel */
"32 32 256 2 ",
"   c black",
".  c #000401",
"X  c #010B02",
"o  c #001003",
"O  c #001003",
"+  c #001003",
"@  c #001003",
"#  c #001103",
"$  c #001704",
"%  c #001D05",
"&  c #002106",
"*  c #012507",
"=  c #052006",
"-  c #0A1B06",
";  c #121405",
":  c #190C04",
">  c #1D0B04",
",  c #1E0B04",
"<  c #200A04",
"1  c #210A05",
"2  c #230A05",
"3  c #240A05",
"4  c #260A05",
"5  c #270A06",
"6  c #280B06",
"7  c #280B06",
"8  c #280B06",
"9  c #280B06",
"0  c #280C07",
"q  c #280D08",
"w  c #280D08",
"e  c #290E0A",
"r  c #29100B",
"t  c #29110D",
"y  c #29130F",
"u  c #2A1510",
"i  c #2A1611",
"p  c #2A1612",
"a  c #2B1713",
"s  c #2C1713",
"d  c #2D1713",
"f  c #2E1714",
"g  c #2F1714",
"h  c #2F1714",
"j  c #301714",
"k  c #301714",
"l  c #301714",
"z  c #301714",
"x  c #351516",
"c  c #3A1418",
"v  c #351616",
"b  c #301714",
"n  c #301814",
"m  c #301814",
"M  c #301A13",
"N  c #301B12",
"B  c #301D13",
"V  c #301F13",
"C  c #302113",
"Z  c #302313",
"A  c #302413",
"S  c #302514",
"D  c #2E2614",
"F  c #2F2614",
"G  c #2F2715",
"H  c #302715",
"J  c #302816",
"K  c #302817",
"L  c #302917",
"P  c #302A18",
"I  c #302B18",
"U  c #312C18",
"Y  c #312D18",
"T  c #312E19",
"R  c #312F19",
"E  c #2F3019",
"W  c #2D3218",
"Q  c #2C3218",
"!  c #2B3318",
"~  c #2B3318",
"^  c #2C3318",
"/  c #2D3319",
"(  c #2F331A",
")  c #31341B",
"_  c #33351D",
"`  c #353721",
"'  c #393B27",
"]  c #3C3E2B",
"[  c #3F4131",
"{  c #444638",
"}  c #494A40",
"|  c #4D4E46",
" . c #52524D",
".. c #575854",
"X. c #5B5B59",
"o. c #5F5F5F",
"O. c #606060",
"+. c gray38",
"@. c #626262",
"#. c gray39",
"$. c #646464",
"%. c #656565",
"&. c gray40",
"*. c #676767",
"=. c #686868",
"-. c DimGray",
";. c #6A6A6A",
":. c gray42",
">. c #6C6C6C",
",. c #6D6D6D",
"<. c gray43",
"1. c #6F6F6F",
"2. c gray44",
"3. c #717171",
"4. c #757370",
"5. c #79766F",
"6. c #7D786E",
"7. c #807A6E",
"8. c #847C6D",
"9. c #877E6C",
"0. c #8A806B",
"q. c #8C816A",
"w. c #8F8369",
"e. c #918468",
"r. c #938567",
"t. c #968765",
"y. c #998863",
"u. c #9B8962",
"i. c #9D8A60",
"p. c #9E8A5F",
"a. c #A08B5E",
"s. c #A18B5D",
"d. c #A28B5D",
"f. c #A28C5C",
"g. c #A38C5B",
"h. c #A48C5B",
"j. c #A48C5A",
"k. c #A48C5A",
"l. c #A48C59",
"z. c #A58C59",
"x. c #A58C59",
"c. c #A58D59",
"v. c #A58D59",
"b. c #A58D5A",
"n. c #A48D5A",
"m. c #A48D5B",
"M. c #A48D5B",
"N. c #A48D5C",
"B. c #A48D5D",
"V. c #A48D5E",
"C. c #A38E60",
"Z. c #A38E61",
"A. c #A38F63",
"S. c #A38F66",
"D. c #A29068",
"F. c #A2916C",
"G. c #A29270",
"H. c #A29373",
"J. c #A29476",
"K. c #A29579",
"L. c #A2967C",
"P. c #A39880",
"I. c #A39984",
"U. c #A49B89",
"Y. c #A49D8D",
"T. c #A59F92",
"R. c #A6A197",
"E. c #A6A39D",
"W. c #A7A6A2",
"Q. c #A9A9A9",
"!. c #AAAAAA",
"~. c gray67",
"^. c #ACACAC",
"/. c gray68",
"(. c #AEAEAE",
"). c #AFAFAF",
"_. c gray69",
"`. c #B1B1B1",
"'. c #B2B2B2",
"]. c gray70",
"[. c #B4B4B4",
"{. c gray71",
"}. c #B6B6B6",
"|. c #B7B7B7",
" X c gray72",
".X c #B9B9B9",
"XX c gray73",
"oX c #BBBBBB",
"OX c #BCBCBC",
"+X c gray74",
"@X c gray",
"#X c gray75",
"$X c #C0C0C0",
"%X c #C1C1C1",
"&X c gray76",
"*X c #C3C3C3",
"=X c gray78",
"-X c #D2D2D2",
";X c #DDDDDD",
":X c #E7E7E7",
">X c #EFEFEF",
",X c #F6F6F6",
"<X c gray98",
"1X c gray99",
"2X c #FDFDFD",
"3X c #FEFEFE",
"4X c #FEFEFE",
"5X c #FEFEFE",
"6X c #FEFEFE",
"7X c #FEFEFE",
"8X c #FEFEFE",
"9X c #FEFEFE",
"0X c #FEFEFE",
"qX c #FEFEFE",
"wX c #FEFEFE",
"eX c #FEFEFE",
"rX c #FEFEFE",
"tX c #FEFEFE",
"yX c #FEFEFE",
"uX c #FEFEFE",
"iX c #FEFEFE",
"pX c #FEFEFE",
"aX c white",
"sX c white",
"dX c white",
"fX c white",
"gX c white",
"hX c white",
"jX c white",
"kX c white",
"lX c white",
"zX c white",
"xX c white",
"cX c white",
"vX c white",
"bX c white",
"nX c white",
"mX c white",
"MX c white",
"NX c white",
"BX c white",
"VX c white",
"CX c white",
"ZX c white",
"AX c white",
"SX c white",
"DX c white",
"FX c white",
"GX c white",
"HX c white",
"JX c white",
"KX c white",
"LX c white",
"PX c white",
"IX c white",
"UX c white",
/* pixels */
"MXMXMXMXMXMXMXMXMXMXMXMXMXMXMXMXMXMXMXMXMXMXMXMXMXMXMXMXMXMXMXMX",
"MXMXMXMXMXMXMXMXMXMXMXMXMXMXMXMXMXMXMXMXMXMXMXMXMXMXMXMXMXMXMXMX",
"MXMXMXMXMXMXMXMXMXMXMXMXMXMXMXMXMXMXMXMXMXMXMXMXMXMXMXMXMXMXMXMX",
"MXMXMXMXMXMXMXMXMXMXMXMXMXMXMX6 < 6 MXMXMXMXMXMXMXMXMXMXMXMXMXMX",
"MXMXMXMXMXMXMXMXMXMXMXMXMXMX@ < < < @ MXMXMXMXMXMXMXMXMXMXMXMXMX",
"MXMXMXMXMXMXMXMXMXMXMXMXMXMX@ A N N @ MXMXMXMXMXMXMXMXMXMXMXMXMX",
"MXMXMXMXMXMXMXMXMXMXMXMXMXMXMX@ N @ MXMXMXMXMXMXMXMXMXMXMXMXMXMX",
"MXMXMXMXMXMXMXMXMXMXMXMXMXMXMX@ * @ MXMXMXMXMXMXMXMXMXMXMXMXMXMX",
"MXMXMXMXMXMXMXMXMXMXMXMXMXMXMX@ * @ MXMXMXMXMXMXMXMXMXMXMXMXMXMX",
"MXMXMXMXMXMXMXMXMXMXMXMXMXMXMX@ * @ MXMXMXMXMXMXMXMXMXMXMXMXMXMX",
"MXMXMXMXMXMXMXMXMXMXMXMXMXMX@ * * * @ MXMXMXMXMXMXMXMXMXMXMXMXMX",
"MXMXMXMXMXMXMXMXMXMXMXMXMX@ * MX* * * @ MXMXMXMXMXMXMXMXMXMXMXMX",
"MXMXMXMXMXMXMXMXMXMXMXMXMX@ MXi i D ~ @ MXMXMXMXMXMXMXMXMXMXMXMX",
"MXMXMXMXMXMXMXMXMXMXMXMXMX@ K i i D ~ @ MXMXMXMXMXMXMXMXMXMXMXMX",
"MXMXMXMXMXMXMXMXMXMXMXMXMX@ K j j 6 6 @ MXMXMXMXMXMXMXMXMXMXMXMX",
"MXMXMXMXMXMXMXMXMXMXMXMXMX@ ) j j 6 v.@ MXMXMXMXMXMXMXMXMXMXMXMX",
"MXMXMXMXMXMXMXMXMXMXMXMXMX@ ) j j 6 v.@ MXMXMXMXMXMXMXMXMXMXMXMX",
"MXMXMXMXMXMXMXMXMXMXMXMXMX@ ) j j 6 c @ MXMXMXMXMXMXMXMXMXMXMXMX",
"MXMXMXMXMXMXMXMXMXMXMXMXMX@ ) j j 6 c @ MXMXMXMXMXMXMXMXMXMXMXMX",
"MXMXMXMXMXMXMXMXMXMXMXMXMX@ ) j j 6 v.@ MXMXMXMXMXMXMXMXMXMXMXMX",
"MXMXMXMXMXMXMXMXMXMXMXMXMX@ ) j j 6 v.@ MXMXMXMXMXMXMXMXMXMXMXMX",
"MXMXMXMXMXMXMXMXMXMXMXMXMX@ ) j j 6 6 @ MXMXMXMXMXMXMXMXMXMXMXMX",
"MXMXMXMXMXMXMXMXMXMXMXMXMX@ ) j j K ) @ MXMXMXMXMXMXMXMXMXMXMXMX",
"MXMXMXMXMXMXMXMXMXMXMXMXMX@ ) j j K ) @ MXMXMXMXMXMXMXMXMXMXMXMX",
"MXMXMXMXMXMXMXMXMXMXMXMXMX@ ) j j K ) @ MXMXMXMXMXMXMXMXMXMXMXMX",
"MXMXMXMXMXMXMXMXMXMXMXMXMX@ ) j j K MX@ MXMXMXMXMXMXMXMXMXMXMXMX",
"MXMXMXMXMXMXMXMXMXMXMXMXMXMX@ K j MX@ MXMXMXMXMXMXMXMXMXMXMXMXMX",
"MXMXMXMXMXMXMXMXMXMXMXMXMXMXMX@ @ @ MXMXMXMXMXMXMXMXMXMXMXMXMXMX",
"MXMXMXMXMXMXMXMXMXMXMXMXMXMXMXMXMXMXMXMXMXMXMXMXMXMXMXMXMXMXMXMX",
"MXMXMXMXMXMXMXMXMXMXMXMXMXMXMXMXMXMXMXMXMXMXMXMXMXMXMXMXMXMXMXMX",
"MXMXMXMXMXMXMXMXMXMXMXMXMXMXMXMXMXMXMXMXMXMXMXMXMXMXMXMXMXMXMXMX",
"MXMXMXMXMXMXMXMXMXMXMXMXMXMXMXMXMXMXMXMXMXMXMXMXMXMXMXMXMXMXMXMX"
};
