/* XPM */
static char *_7106_4f568c6e71c5402116995090bccba0d55d3708e1080301b0439df3b448b34742_0[] = {
/* columns rows colors chars-per-pixel */
"32 32 256 2 ",
"   c black",
".  c #000201",
"X  c #000B02",
"o  c #001003",
"O  c #001003",
"+  c #001003",
"@  c #001003",
"#  c #001003",
"$  c #001003",
"%  c #001203",
"&  c #001403",
"*  c #001604",
"=  c #001905",
"-  c #002106",
";  c #002607",
":  c #002808",
">  c #012C08",
",  c #022908",
"<  c #042608",
"1  c #082007",
"2  c #101706",
"3  c #171205",
"4  c #1D1005",
"5  c #230D05",
"6  c #260B05",
"7  c #260B05",
"8  c #270B05",
"9  c #270B05",
"0  c #270B05",
"q  c #270B06",
"w  c #280B06",
"e  c #270B06",
"r  c #270C06",
"t  c #260C06",
"y  c #260D06",
"u  c #250D06",
"i  c #250E07",
"p  c #240F07",
"a  c #231008",
"s  c #22120A",
"d  c #21140B",
"f  c #21150C",
"g  c #24180F",
"h  c #271C11",
"j  c #302316",
"k  c #392A1A",
"l  c #43341F",
"z  c #4D3D23",
"x  c #574628",
"c  c #5E4B2A",
"v  c #624E2B",
"b  c #66502A",
"n  c #69522A",
"m  c #6B532A",
"M  c #6C542A",
"N  c #6D552A",
"B  c #6D572A",
"V  c #6D5A2A",
"C  c #6C5C2B",
"Z  c #6B5E2B",
"A  c #69602B",
"S  c #69622C",
"D  c #68632C",
"F  c #68642C",
"G  c #66652D",
"H  c #65652D",
"J  c #64652E",
"K  c #64652E",
"L  c #63652F",
"P  c #626530",
"I  c #606431",
"U  c #5F6332",
"Y  c #586337",
"T  c #50633B",
"R  c #486241",
"E  c #3F6246",
"W  c #38624B",
"Q  c #31634F",
"!  c #2A6453",
"~  c #226558",
"^  c #1B665C",
"/  c #146761",
"(  c #0C6865",
")  c #056A69",
"_  c #026A6B",
"`  c #006A6C",
"'  c #00686C",
"]  c #006B6C",
"[  c #006C6C",
"{  c #006D6C",
"}  c #006E6B",
"|  c #006E6B",
" . c #006E6B",
".. c #006F6B",
"X. c #006F6B",
"o. c #006F6B",
"O. c #006F6B",
"+. c #006F6B",
"@. c #006F6B",
"#. c #006F6B",
"$. c #006F6B",
"%. c #00706B",
"&. c #00706B",
"*. c #00706B",
"=. c #00706B",
"-. c #00726B",
";. c #00746C",
":. c #00766C",
">. c #00786C",
",. c #007B6D",
"<. c #007D6D",
"1. c #007F6D",
"2. c #007F6D",
"3. c #00806D",
"4. c #00816E",
"5. c #00816E",
"6. c #00826E",
"7. c #00846E",
"8. c #00876F",
"9. c #00896F",
"0. c #008A6F",
"q. c #008F76",
"w. c #00947D",
"e. c #009D8A",
"r. c #00A394",
"t. c #00A99D",
"y. c #00A494",
"u. c #019F8D",
"i. c #029780",
"p. c #049278",
"a. c #108C6D",
"s. c #1C8C6C",
"d. c #2D8B6A",
"f. c #418D66",
"g. c #558E63",
"h. c #688F5F",
"j. c #7C915D",
"k. c #91925A",
"l. c #9F9358",
"z. c #A99457",
"x. c #AF9556",
"c. c #B49656",
"v. c #BC9953",
"b. c #C39B50",
"n. c #C79D4E",
"m. c #CA9E4D",
"M. c #CFA04B",
"N. c #D2A24A",
"B. c #D3A24B",
"V. c #D1A24E",
"C. c #CCA153",
"Z. c #C49F5B",
"A. c #BE9D62",
"S. c #B69C6B",
"D. c #B29B71",
"F. c #AE9B78",
"G. c #A99B81",
"H. c #A49B8A",
"J. c #9E9B95",
"K. c #9F9D9A",
"L. c #A0A0A0",
"P. c gray63",
"I. c #A2A2A2",
"U. c gray64",
"Y. c #A4A4A4",
"T. c #A5A5A5",
"R. c gray65",
"E. c #A7A7A7",
"W. c gray66",
"Q. c #A9A9A9",
"!. c #AAAAAA",
"~. c gray67",
"^. c #ACACAC",
"/. c gray68",
"(. c #AEAEAE",
"). c #AFAFAF",
"_. c gray69",
"`. c #B1B1B1",
"'. c #B2B2B2",
"]. c gray70",
"[. c #B4B4B4",
"{. c gray71",
"}. c #B6B6B6",
"|. c #B7B7B7",
" X c gray72",
".X c #B9B9B9",
"XX c gray73",
"oX c #BBBBBB",
"OX c #BCBCBC",
"+X c gray74",
"@X c gray",
"#X c gray75",
"$X c #C0C0C0",
"%X c #C1C1C1",
"&X c gray76",
"*X c #C3C3C3",
"=X c gray78",
"-X c #D2D2D2",
";X c #DDDDDD",
":X c #E7E7E7",
">X c #EFEFEF",
",X c #F6F6F6",
"<X c gray98",
"1X c gray99",
"2X c #FDFDFD",
"3X c #FEFEFE",
"4X c #FEFEFE",
"5X c #FEFEFE",
"6X c #FEFEFE",
"7X c #FEFEFE",
"8X c #FEFEFE",
"9X c #FEFEFE",
"0X c #FEFEFE",
"qX c #FEFEFE",
"wX c #FEFEFE",
"eX c #FEFEFE",
"rX c #FEFEFE",
"tX c #FEFEFE",
"yX c #FEFEFE",
"uX c #FEFEFE",
"iX c #FEFEFE",
"pX c #FEFEFE",
"aX c white",
"sX c white",
"dX c white",
"fX c white",
"gX c white",
"hX c white",
"jX c white",
"kX c white",
"lX c white",
"zX c white",
"xX c white",
"cX c white",
"vX c white",
"bX c white",
"nX c white",
"mX c white",
"MX c white",
"NX c white",
"BX c white",
"VX c white",
"CX c white",
"ZX c white",
"AX c white",
"SX c white",
"DX c white",
"FX c white",
"GX c white",
"HX c white",
"JX c white",
"KX c white",
"LX c white",
"PX c white",
"IX c white",
"UX c white",
/* pixels */
"MXMXMXMXMXMXMXMXMXMXMXMXMXMXMXMXMXMXMXMXMXMXMXMXMXMXMXMXMXMXMXMX",
"MXMXMXMXMXMXMXMXMXMXMXMXMXMXMXMXMXMXMXMXMXMXMXMXMXMXMXMXMXMXMXMX",
"MXMXMXMXMXMXMXMXMXMXMXMXMXMXMXMXMXMXMXMXMXMXMXMXMXMXMXMXMXMXMXMX",
"MXMXMXMXMXMXMXMXMXMXMXMXMXMXMXB.B.B.MXMXMXMXMXMXMXMXMXMXMXMXMXMX",
"MXMXMXMXMXMXMXMXMXMXMXMXMXMX@ M M M @ MXMXMXMXMXMXMXMXMXMXMXMXMX",
"MXMXMXMXMXMXMXMXMXMXMXMXMXMX@ G G G @ MXMXMXMXMXMXMXMXMXMXMXMXMX",
"MXMXMXMXMXMXMXMXMXMXMXMXMXMXMX@ G @ MXMXMXMXMXMXMXMXMXMXMXMXMXMX",
"MXMXMXMXMXMXMXMXMXMXMXMXMXMXMX@ : @ MXMXMXMXMXMXMXMXMXMXMXMXMXMX",
"MXMXMXMXMXMXMXMXMXMXMXMXMXMXMX@ : @ MXMXMXMXMXMXMXMXMXMXMXMXMXMX",
"MXMXMXMXMXMXMXMXMXMXMXMXMXMXMX@ : @ MXMXMXMXMXMXMXMXMXMXMXMXMXMX",
"MXMXMXMXMXMXMXMXMXMXMXMXMXMX@ > : : @ MXMXMXMXMXMXMXMXMXMXMXMXMX",
"MXMXMXMXMXMXMXMXMXMXMXMXMX@ > MX: : > @ MXMXMXMXMXMXMXMXMXMXMXMX",
"MXMXMXMXMXMXMXMXMXMXMXMXMX@ MX` ' ' :.@ MXMXMXMXMXMXMXMXMXMXMXMX",
"MXMXMXMXMXMXMXMXMXMXMXMXMX@ 0.` ' ' 5.@ MXMXMXMXMXMXMXMXMXMXMXMX",
"MXMXMXMXMXMXMXMXMXMXMXMXMX@ w w *.*.5.@ MXMXMXMXMXMXMXMXMXMXMXMX",
"MXMXMXMXMXMXMXMXMXMXMXMXMX@ z.w *.*.0.@ MXMXMXMXMXMXMXMXMXMXMXMX",
"MXMXMXMXMXMXMXMXMXMXMXMXMX@ t.w *.*.0.@ MXMXMXMXMXMXMXMXMXMXMXMX",
"MXMXMXMXMXMXMXMXMXMXMXMXMX@ t.w *.*.0.@ MXMXMXMXMXMXMXMXMXMXMXMX",
"MXMXMXMXMXMXMXMXMXMXMXMXMX@ t.w *.*.0.@ MXMXMXMXMXMXMXMXMXMXMXMX",
"MXMXMXMXMXMXMXMXMXMXMXMXMX@ z.w *.*.0.@ MXMXMXMXMXMXMXMXMXMXMXMX",
"MXMXMXMXMXMXMXMXMXMXMXMXMX@ z.w *.*.0.@ MXMXMXMXMXMXMXMXMXMXMXMX",
"MXMXMXMXMXMXMXMXMXMXMXMXMX@ w w *.*.0.@ MXMXMXMXMXMXMXMXMXMXMXMX",
"MXMXMXMXMXMXMXMXMXMXMXMXMX@ 0.5.*.*.0.@ MXMXMXMXMXMXMXMXMXMXMXMX",
"MXMXMXMXMXMXMXMXMXMXMXMXMX@ 0.5.*.*.0.@ MXMXMXMXMXMXMXMXMXMXMXMX",
"MXMXMXMXMXMXMXMXMXMXMXMXMX@ 0.5.*.*.0.@ MXMXMXMXMXMXMXMXMXMXMXMX",
"MXMXMXMXMXMXMXMXMXMXMXMXMX@ 0.5.*.*.MX@ MXMXMXMXMXMXMXMXMXMXMXMX",
"MXMXMXMXMXMXMXMXMXMXMXMXMXMX@ 5.*.MX@ MXMXMXMXMXMXMXMXMXMXMXMXMX",
"MXMXMXMXMXMXMXMXMXMXMXMXMXMXMX@ @ @ MXMXMXMXMXMXMXMXMXMXMXMXMXMX",
"MXMXMXMXMXMXMXMXMXMXMXMXMXMXMXMXMXMXMXMXMXMXMXMXMXMXMXMXMXMXMXMX",
"MXMXMXMXMXMXMXMXMXMXMXMXMXMXMXMXMXMXMXMXMXMXMXMXMXMXMXMXMXMXMXMX",
"MXMXMXMXMXMXMXMXMXMXMXMXMXMXMXMXMXMXMXMXMXMXMXMXMXMXMXMXMXMXMXMX",
"MXMXMXMXMXMXMXMXMXMXMXMXMXMXMXMXMXMXMXMXMXMXMXMXMXMXMXMXMXMXMXMX"
};
