/* XPM */
static char *_7106_4f568c6e71c5402116995090bccba0d55d3708e1080301b0439df3b448b34742_1[] = {
/* columns rows colors chars-per-pixel */
"32 32 256 2 ",
"   c black",
".  c #000201",
"X  c #000B02",
"o  c #001003",
"O  c #001003",
"+  c #001003",
"@  c #001003",
"#  c #001003",
"$  c #001003",
"%  c #001203",
"&  c #001403",
"*  c #001604",
"=  c #001905",
"-  c #002106",
";  c #002607",
":  c #002808",
">  c #002C08",
",  c #022808",
"<  c #052508",
"1  c #092007",
"2  c #0F1706",
"3  c #161205",
"4  c #1B1005",
"5  c #200D05",
"6  c #240B05",
"7  c #250B05",
"8  c #260B05",
"9  c #260B05",
"0  c #270B05",
"q  c #270B06",
"w  c #270B06",
"e  c #270C06",
"r  c #260C06",
"t  c #250D06",
"y  c #240E07",
"u  c #230F07",
"i  c #221008",
"p  c #211209",
"a  c #1F140A",
"s  c #1E170C",
"d  c #1E180E",
"f  c #1D1B10",
"g  c #1D1D13",
"h  c #1E1F15",
"j  c #202118",
"k  c #21231B",
"l  c #24261F",
"z  c #262923",
"x  c #292C28",
"c  c #32322D",
"v  c #3A3630",
"b  c #433A30",
"n  c #4A3E30",
"m  c #50412F",
"M  c #56442F",
"N  c #5B482E",
"B  c #5F4B2E",
"V  c #634E2D",
"C  c #67502C",
"Z  c #6A522C",
"A  c #6B532B",
"S  c #6D542B",
"D  c #6D552B",
"F  c #6E562B",
"G  c #6E562B",
"H  c #6D592B",
"J  c #6C5B2B",
"K  c #6A5E2C",
"L  c #6A602C",
"P  c #69612C",
"I  c #68632C",
"U  c #67642D",
"Y  c #66652D",
"T  c #66662E",
"R  c #65662E",
"E  c #65662F",
"W  c #64662F",
"Q  c #626631",
"!  c #5F6632",
"~  c #576737",
"^  c #4F673C",
"/  c #436843",
"(  c #38684A",
")  c #2D6851",
"_  c #216858",
"`  c #1B695C",
"'  c #156A5F",
"]  c #106A62",
"[  c #0C6B65",
"{  c #086B67",
"}  c #056C69",
"|  c #026D6A",
" . c #006C6C",
".. c #006A6B",
"X. c #006C6B",
"o. c #006E6B",
"O. c #006E6B",
"+. c #006F6B",
"@. c #006F6B",
"#. c #006F6B",
"$. c #00706B",
"%. c #00706B",
"&. c #00726B",
"*. c #00736C",
"=. c #00756C",
"-. c #00776C",
";. c #007A6D",
":. c #007C6D",
">. c #007E6D",
",. c #007F6D",
"<. c #00806E",
"1. c #00826E",
"2. c #008373",
"3. c #00857B",
"4. c #008784",
"5. c #00888A",
"6. c #008884",
"7. c #00897B",
"8. c #018973",
"9. c #038A6F",
"0. c #08896E",
"q. c #0F896D",
"w. c #16896C",
"e. c #1F896A",
"r. c #2F8968",
"t. c #428966",
"y. c #568A63",
"u. c #6F8B5F",
"i. c #908E59",
"p. c #9D9055",
"a. c #A89252",
"s. c #B0944F",
"d. c #B7964D",
"f. c #BC974B",
"g. c #C09849",
"h. c #C79B46",
"j. c #CC9D44",
"k. c #D3A040",
"l. c #D7A13E",
"z. c #D9A23D",
"x. c #D9A23E",
"c. c #D7A13E",
"v. c #D19F41",
"b. c #CD9D44",
"n. c #C79A47",
"m. c #C0974B",
"M. c #B8944F",
"N. c #B29251",
"B. c #AE9054",
"V. c #AB8F55",
"C. c #A98E56",
"Z. c #A78D57",
"A. c #A68D58",
"S. c #A58D58",
"D. c #A58D59",
"F. c #A58D5A",
"G. c #A58E5D",
"H. c #A48F60",
"J. c #A49064",
"K. c #A4926B",
"L. c #A39475",
"P. c #A3977E",
"I. c #A39B8A",
"U. c #A39F95",
"Y. c #A4A19A",
"T. c #A5A3A0",
"R. c gray65",
"E. c #A7A7A7",
"W. c gray66",
"Q. c #A9A9A9",
"!. c #AAAAAA",
"~. c gray67",
"^. c #ACACAC",
"/. c gray68",
"(. c #A2B1B3",
"). c #99B6B8",
"_. c #8FBABE",
"`. c #86BEC3",
"'. c #7DC2C8",
"]. c #75C6CD",
"[. c #6CC9D1",
"{. c #64CCD5",
"}. c #57D1DB",
"|. c #4BD5E1",
" X c #40D8E6",
".X c #37DBEA",
"XX c #2FDDED",
"oX c #28DFF0",
"OX c #22E1F2",
"+X c #1BE3F5",
"@X c #15E4F7",
"#X c #11E6F9",
"$X c #0DE6FA",
"%X c #0AE7FB",
"&X c #08E8FC",
"*X c #06E8FD",
"=X c #04E9FD",
"-X c #03E9FD",
";X c #03E9FE",
":X c #02E9FE",
">X c #02E9FE",
",X c #02EAFE",
"<X c #03EAFE",
"1X c #04EAFE",
"2X c #05EAFE",
"3X c #06EAFE",
"4X c #08EAFE",
"5X c #0BEAFE",
"6X c #0EEBFE",
"7X c #12EBFE",
"8X c #17EBFE",
"9X c #1DECFE",
"0X c #2DEDFE",
"qX c #88F5FE",
"wX c #B0F8FE",
"eX c #C2FAFE",
"rX c #D0FBFE",
"tX c #DFFCFE",
"yX c #EEFDFE",
"uX c #FEFEFE",
"iX c #FEFEFE",
"pX c #FEFEFE",
"aX c #FEFEFF",
"sX c #FEFEFF",
"dX c #FEFEFF",
"fX c white",
"gX c white",
"hX c white",
"jX c white",
"kX c white",
"lX c white",
"zX c white",
"xX c white",
"cX c white",
"vX c white",
"bX c white",
"nX c white",
"mX c white",
"MX c white",
"NX c white",
"BX c white",
"VX c white",
"CX c white",
"ZX c white",
"AX c white",
"SX c white",
"DX c white",
"FX c white",
"GX c white",
"HX c white",
"JX c white",
"KX c white",
"LX c white",
"PX c white",
"IX c white",
"UX c white",
/* pixels */
"BXBXBXBXBXBXBXBXBXBXBXBXBXBXBXBXBXBXBXBXBXBXBXBXBXBXBXBXBXBXBXBX",
"BXBXBXBXBXBXBXBXBXBXBXBXBXBXBXBXBXBXBXBXBXBXBXBXBXBXBXBXBXBXBXBX",
"BXBXBXBXBXBXBXBXBXBXBXBXBXBXBXBXBXBXBXBXBXBXBXBXBXBXBXBXBXBXBXBX",
"BXBXBXBXBXBXBXBXBXBXBXBXBXBXBXz.z.z.BXBXBXBXBXBXBXBXBXBXBXBXBXBX",
"BXBXBXBXBXBXBXBXBXBXBXBXBXBX@ S S S @ BXBXBXBXBXBXBXBXBXBXBXBXBX",
"BXBXBXBXBXBXBXBXBXBXBXBXBXBX@ T T T @ BXBXBXBXBXBXBXBXBXBXBXBXBX",
"BXBXBXBXBXBXBXBXBXBXBXBXBXBXBX@ T @ BXBXBXBXBXBXBXBXBXBXBXBXBXBX",
"BXBXBXBXBXBXBXBXBXBXBXBXBXBXBX@ : @ BXBXBXBXBXBXBXBXBXBXBXBXBXBX",
"BXBXBXBXBXBXBXBXBXBXBXBXBXBXBX@ : @ BXBXBXBXBXBXBXBXBXBXBXBXBXBX",
"BXBXBXBXBXBXBXBXBXBXBXBXBXBXBX@ : @ BXBXBXBXBXBXBXBXBXBXBXBXBXBX",
"BXBXBXBXBXBXBXBXBXBXBXBXBXBX@ > : : @ BXBXBXBXBXBXBXBXBXBXBXBXBX",
"BXBXBXBXBXBXBXBXBXBXBXBXBX@ > BX: : > @ BXBXBXBXBXBXBXBXBXBXBXBX",
"BXBXBXBXBXBXBXBXBXBXBXBXBX@ BX......-.@ BXBXBXBXBXBXBXBXBXBXBXBX",
"BXBXBXBXBXBXBXBXBXBXBXBXBX@ 9.......1.@ BXBXBXBXBXBXBXBXBXBXBXBX",
"BXBXBXBXBXBXBXBXBXBXBXBXBX@ q q q q q @ BXBXBXBXBXBXBXBXBXBXBXBX",
"BXBXBXBXBXBXBXBXBXBXBXBXBX@ A.5.5.,XA.@ BXBXBXBXBXBXBXBXBXBXBXBX",
"BXBXBXBXBXBXBXBXBXBXBXBXBX@ 5.A.A.A.,X@ BXBXBXBXBXBXBXBXBXBXBXBX",
"BXBXBXBXBXBXBXBXBXBXBXBXBX@ 5.A.,XA.,X@ BXBXBXBXBXBXBXBXBXBXBXBX",
"BXBXBXBXBXBXBXBXBXBXBXBXBX@ ,XA.A.A.,X@ BXBXBXBXBXBXBXBXBXBXBXBX",
"BXBXBXBXBXBXBXBXBXBXBXBXBX@ A.,XA.,XA.@ BXBXBXBXBXBXBXBXBXBXBXBX",
"BXBXBXBXBXBXBXBXBXBXBXBXBX@ A.A.A.A.A.@ BXBXBXBXBXBXBXBXBXBXBXBX",
"BXBXBXBXBXBXBXBXBXBXBXBXBX@ q q q q q @ BXBXBXBXBXBXBXBXBXBXBXBX",
"BXBXBXBXBXBXBXBXBXBXBXBXBX@ 9.1.%.%.9.@ BXBXBXBXBXBXBXBXBXBXBXBX",
"BXBXBXBXBXBXBXBXBXBXBXBXBX@ 9.1.%.%.9.@ BXBXBXBXBXBXBXBXBXBXBXBX",
"BXBXBXBXBXBXBXBXBXBXBXBXBX@ 9.1.%.%.9.@ BXBXBXBXBXBXBXBXBXBXBXBX",
"BXBXBXBXBXBXBXBXBXBXBXBXBX@ 9.1.%.%.BX@ BXBXBXBXBXBXBXBXBXBXBXBX",
"BXBXBXBXBXBXBXBXBXBXBXBXBXBX@ 1.%.BX@ BXBXBXBXBXBXBXBXBXBXBXBXBX",
"BXBXBXBXBXBXBXBXBXBXBXBXBXBXBX@ @ @ BXBXBXBXBXBXBXBXBXBXBXBXBXBX",
"BXBXBXBXBXBXBXBXBXBXBXBXBXBXBXBXBXBXBXBXBXBXBXBXBXBXBXBXBXBXBXBX",
"BXBXBXBXBXBXBXBXBXBXBXBXBXBXBXBXBXBXBXBXBXBXBXBXBXBXBXBXBXBXBXBX",
"BXBXBXBXBXBXBXBXBXBXBXBXBXBXBXBXBXBXBXBXBXBXBXBXBXBXBXBXBXBXBXBX",
"BXBXBXBXBXBXBXBXBXBXBXBXBXBXBXBXBXBXBXBXBXBXBXBXBXBXBXBXBXBXBXBX"
};
