/* XPM */
static char *_7106_4f568c6e71c5402116995090bccba0d55d3708e1080301b0439df3b448b34742_2[] = {
/* columns rows colors chars-per-pixel */
"32 32 256 2 ",
"   c black",
".  c #000201",
"X  c #010602",
"o  c #030F03",
"O  c #000F03",
"+  c #000F03",
"@  c #000F03",
"#  c #000F03",
"$  c #000F03",
"%  c #020F03",
"&  c #050F03",
"*  c #0F0E04",
"=  c #1B0C05",
"-  c #220C05",
";  c #230C05",
":  c #230C05",
">  c #220D05",
",  c #200F06",
"<  c #1C1206",
"1  c #181506",
"2  c #131906",
"3  c #0E1D07",
"4  c #092107",
"5  c #042508",
"6  c #012808",
"7  c #012808",
"8  c #012908",
"9  c #012A08",
"0  c #022C09",
"q  c #032F0A",
"w  c #06350B",
"e  c #07380D",
"r  c #0A3D0E",
"t  c #0E3E10",
"y  c #124111",
"u  c #174212",
"i  c #1C4414",
"p  c #244616",
"a  c #304B19",
"s  c #3B4E1C",
"d  c #42501E",
"f  c #495120",
"g  c #505221",
"h  c #585423",
"j  c #5F5524",
"k  c #645626",
"l  c #695827",
"z  c #6C5A29",
"x  c #6C5C29",
"c  c #6C5D29",
"v  c #6B5E2A",
"b  c #6A602B",
"n  c #68622B",
"m  c #68632C",
"M  c #67632D",
"N  c #64642E",
"B  c #616430",
"V  c #5E6532",
"C  c #596535",
"Z  c #50663A",
"A  c #48673F",
"S  c #3D6845",
"D  c #2E6A4E",
"F  c #1E6C58",
"G  c #116D60",
"H  c #066D66",
"J  c #036E68",
"K  c #016F6A",
"L  c #006F6A",
"P  c #006F6A",
"I  c #00706B",
"U  c #00706B",
"Y  c #00706B",
"T  c #00706B",
"R  c #00706B",
"E  c #006F6A",
"W  c #006F6B",
"Q  c #006E6B",
"!  c #006D6B",
"~  c #006D6B",
"^  c #006B6B",
"/  c #006A6B",
"(  c #00686B",
")  c #00676B",
"_  c #00666B",
"`  c #00656B",
"'  c #00646B",
"]  c #00646B",
"[  c #00646B",
"{  c #00646C",
"}  c #00646D",
"|  c #00646E",
" . c #006470",
".. c #006473",
"X. c #006578",
"o. c #00677D",
"O. c #006A85",
"+. c #006E8D",
"@. c #007397",
"#. c #0078A1",
"$. c #0086AC",
"%. c #008DAD",
"&. c #008DA8",
"*. c #00889B",
"=. c #008893",
"-. c #00888C",
";. c #008985",
":. c #00897F",
">. c #008979",
",. c #008A75",
"<. c #008A73",
"1. c #008A71",
"2. c #008B71",
"3. c #008B70",
"4. c #008B70",
"5. c #008B70",
"6. c #008B6F",
"7. c #008B6F",
"8. c #008A6F",
"9. c #008A6F",
"0. c #00896F",
"q. c #00896F",
"w. c #00876F",
"e. c #00866E",
"r. c #00856E",
"t. c #00846E",
"y. c #00836E",
"u. c #00836E",
"i. c #00826E",
"p. c #00826E",
"a. c #00826E",
"s. c #00816E",
"d. c #00816E",
"f. c #00816E",
"g. c #00816E",
"h. c #00816E",
"j. c #01816E",
"k. c #02816E",
"l. c #08826E",
"z. c #0F826D",
"x. c #18836D",
"c. c #22846C",
"v. c #37866A",
"b. c #558966",
"n. c #6D8C63",
"m. c #868F5F",
"M. c #95915D",
"N. c #A1935C",
"B. c #A8945B",
"V. c #AD955A",
"C. c #B29759",
"Z. c #BB9A55",
"A. c #C59E52",
"S. c #CCA051",
"D. c #D2A34D",
"F. c #D7A54B",
"G. c #D8A54B",
"H. c #D6A54D",
"J. c #D3A451",
"K. c #CEA357",
"L. c #CAA35C",
"P. c #C4A263",
"I. c #BEA16C",
"U. c #BBA172",
"Y. c #B8A279",
"T. c #B4A281",
"R. c #B0A38B",
"E. c #ACA496",
"W. c #A7A6A2",
"Q. c #A9A9A9",
"!. c #AAAAAA",
"~. c gray67",
"^. c #ACACAC",
"/. c gray68",
"(. c #AEAEAE",
"). c #AFAFAF",
"_. c gray69",
"`. c #B1B1B1",
"'. c #B2B2B2",
"]. c gray70",
"[. c #B4B4B4",
"{. c gray71",
"}. c #B6B6B6",
"|. c #B7B7B7",
" X c gray72",
".X c #B9B9B9",
"XX c gray73",
"oX c #BBBBBB",
"OX c #BCBCBC",
"+X c gray74",
"@X c gray",
"#X c gray75",
"$X c #C0C0C0",
"%X c #C1C1C1",
"&X c gray76",
"*X c #C3C3C3",
"=X c gray78",
"-X c #D2D2D2",
";X c #DDDDDD",
":X c #E7E7E7",
">X c #EFEFEF",
",X c #F6F6F6",
"<X c gray98",
"1X c gray99",
"2X c #FDFDFD",
"3X c #FEFEFE",
"4X c #FEFEFE",
"5X c #FEFEFE",
"6X c #FEFEFE",
"7X c #FEFEFE",
"8X c #FEFEFE",
"9X c #FEFEFE",
"0X c #FEFEFE",
"qX c #FEFEFE",
"wX c #FEFEFE",
"eX c #FEFEFE",
"rX c #FEFEFE",
"tX c #FEFEFE",
"yX c #FEFEFE",
"uX c #FEFEFE",
"iX c #FEFEFE",
"pX c #FEFEFE",
"aX c white",
"sX c white",
"dX c white",
"fX c white",
"gX c white",
"hX c white",
"jX c white",
"kX c white",
"lX c white",
"zX c white",
"xX c white",
"cX c white",
"vX c white",
"bX c white",
"nX c white",
"mX c white",
"MX c white",
"NX c white",
"BX c white",
"VX c white",
"CX c white",
"ZX c white",
"AX c white",
"SX c white",
"DX c white",
"FX c white",
"GX c white",
"HX c white",
"JX c white",
"KX c white",
"LX c white",
"PX c white",
"IX c white",
"UX c white",
/* pixels */
"MXMXMXMXMXMXMXMXMXMXMXMXMXMXMXMXMXMXMXMXMXMXMXMXMXMXMXMXMXMXMXMX",
"MXMXMXMXMXMXMXMXMXMXMXMXMXMXMXMXMXMXMXMXMXMXMXMXMXMXMXMXMXMXMXMX",
"MXMXMXMXMXMXMXMXMXMXMXMXMXMXMXMXMXMXMXMXMXMXMXMXMXMXMXMXMXMXMXMX",
"MXMXMXMXMXMXMXMXMXMXMXMXMXMXMXG.G.G.MXMXMXMXMXMXMXMXMXMXMXMXMXMX",
"MXMXMXMXMXMXMXMXMXMXMXMXMXMX# z z z # MXMXMXMXMXMXMXMXMXMXMXMXMX",
"MXMXMXMXMXMXMXMXMXMXMXMXMXMX# N M M # MXMXMXMXMXMXMXMXMXMXMXMXMX",
"MXMXMXMXMXMXMXMXMXMXMXMXMXMXMX# M # MXMXMXMXMXMXMXMXMXMXMXMXMXMX",
"MXMXMXMXMXMXMXMXMXMXMXMXMXMXMX# 6 # MXMXMXMXMXMXMXMXMXMXMXMXMXMX",
"MXMXMXMXMXMXMXMXMXMXMXMXMXMXMX# 6 # MXMXMXMXMXMXMXMXMXMXMXMXMXMX",
"MXMXMXMXMXMXMXMXMXMXMXMXMXMXMX# 6 # MXMXMXMXMXMXMXMXMXMXMXMXMXMX",
"MXMXMXMXMXMXMXMXMXMXMXMXMXMX# 6 6 r # MXMXMXMXMXMXMXMXMXMXMXMXMX",
"MXMXMXMXMXMXMXMXMXMXMXMXMX# r MX6 r r # MXMXMXMXMXMXMXMXMXMXMXMX",
"MXMXMXMXMXMXMXMXMXMXMXMXMX# MX' ' / R # MXMXMXMXMXMXMXMXMXMXMXMX",
"MXMXMXMXMXMXMXMXMXMXMXMXMX# g.' ' / u # MXMXMXMXMXMXMXMXMXMXMXMX",
"MXMXMXMXMXMXMXMXMXMXMXMXMX# g.T T ; ; # MXMXMXMXMXMXMXMXMXMXMXMX",
"MXMXMXMXMXMXMXMXMXMXMXMXMX# 4.T T ; B.# MXMXMXMXMXMXMXMXMXMXMXMX",
"MXMXMXMXMXMXMXMXMXMXMXMXMX# 4.T T ; $.# MXMXMXMXMXMXMXMXMXMXMXMX",
"MXMXMXMXMXMXMXMXMXMXMXMXMX# 4.T T ; $.# MXMXMXMXMXMXMXMXMXMXMXMX",
"MXMXMXMXMXMXMXMXMXMXMXMXMX# 4.T T ; %.# MXMXMXMXMXMXMXMXMXMXMXMX",
"MXMXMXMXMXMXMXMXMXMXMXMXMX# 4.T T ; B.# MXMXMXMXMXMXMXMXMXMXMXMX",
"MXMXMXMXMXMXMXMXMXMXMXMXMX# 4.T T ; B.# MXMXMXMXMXMXMXMXMXMXMXMX",
"MXMXMXMXMXMXMXMXMXMXMXMXMX# 4.T T ; ; # MXMXMXMXMXMXMXMXMXMXMXMX",
"MXMXMXMXMXMXMXMXMXMXMXMXMX# 4.T T g.4.# MXMXMXMXMXMXMXMXMXMXMXMX",
"MXMXMXMXMXMXMXMXMXMXMXMXMX# 4.T T g.4.# MXMXMXMXMXMXMXMXMXMXMXMX",
"MXMXMXMXMXMXMXMXMXMXMXMXMX# 4.T T g.4.# MXMXMXMXMXMXMXMXMXMXMXMX",
"MXMXMXMXMXMXMXMXMXMXMXMXMX# 4.T T g.MX# MXMXMXMXMXMXMXMXMXMXMXMX",
"MXMXMXMXMXMXMXMXMXMXMXMXMXMX# g.T MX# MXMXMXMXMXMXMXMXMXMXMXMXMX",
"MXMXMXMXMXMXMXMXMXMXMXMXMXMXMX# # # MXMXMXMXMXMXMXMXMXMXMXMXMXMX",
"MXMXMXMXMXMXMXMXMXMXMXMXMXMXMXMXMXMXMXMXMXMXMXMXMXMXMXMXMXMXMXMX",
"MXMXMXMXMXMXMXMXMXMXMXMXMXMXMXMXMXMXMXMXMXMXMXMXMXMXMXMXMXMXMXMX",
"MXMXMXMXMXMXMXMXMXMXMXMXMXMXMXMXMXMXMXMXMXMXMXMXMXMXMXMXMXMXMXMX",
"MXMXMXMXMXMXMXMXMXMXMXMXMXMXMXMXMXMXMXMXMXMXMXMXMXMXMXMXMXMXMXMX"
};
