/* XPM */
static char *_7106_4f568c6e71c5402116995090bccba0d55d3708e1080301b0439df3b448b34742_3[] = {
/* columns rows colors chars-per-pixel */
"32 32 256 2 ",
"   c black",
".  c #000201",
"X  c #000B02",
"o  c #001003",
"O  c #000F03",
"+  c #000F03",
"@  c #000F03",
"#  c #001003",
"$  c #001003",
"%  c #001003",
"&  c #001003",
"*  c #001003",
"=  c #001103",
"-  c #001203",
";  c #001404",
":  c #001604",
">  c #001804",
",  c #001C05",
"<  c #001F06",
"1  c #002206",
"2  c #002407",
"3  c #002507",
"4  c #002607",
"5  c #002707",
"6  c #002808",
"7  c #002908",
"8  c #002A08",
"9  c #002C08",
"0  c #002E09",
"q  c #003009",
"w  c #00330A",
"e  c #00350A",
"r  c #00370B",
"t  c #01390C",
"y  c #01390C",
"u  c #013A0D",
"i  c #023D0D",
"p  c #023F0E",
"a  c #03400F",
"s  c #044310",
"d  c #054111",
"f  c #074012",
"g  c #083E13",
"h  c #0B3C14",
"j  c #113D17",
"k  c #1B401A",
"l  c #25421D",
"z  c #2F4520",
"x  c #3A4823",
"c  c #444B26",
"v  c #4F4E29",
"b  c #54502A",
"n  c #58522B",
"m  c #5C542C",
"M  c #5E552C",
"N  c #62572C",
"B  c #64582C",
"V  c #67582B",
"C  c #6A582B",
"Z  c #6C582A",
"A  c #6D582A",
"S  c #6E582A",
"D  c #6E5A2A",
"F  c #6E5B2A",
"G  c #6D5D2B",
"H  c #6C5E2B",
"J  c #6B602B",
"K  c #6B612C",
"L  c #6A622C",
"P  c #69622D",
"I  c #67632E",
"U  c #66632F",
"Y  c #646330",
"T  c #626331",
"R  c #5F6333",
"E  c #576237",
"W  c #4E613D",
"Q  c #476041",
"!  c #3E5E47",
"~  c #355D4C",
"^  c #285C54",
"/  c #195B5C",
"(  c #135D60",
")  c #0C5E64",
"_  c #086066",
"`  c #046168",
"'  c #026269",
"]  c #00636A",
"[  c #00636B",
"{  c #00636B",
"}  c #00666B",
"|  c #00686B",
" . c #006A6B",
".. c #006B6B",
"X. c #006C6B",
"o. c #006E6B",
"O. c #006E6B",
"+. c #006F6B",
"@. c #006F6B",
"#. c #006F6B",
"$. c #006F6B",
"%. c #00706B",
"&. c #00706B",
"*. c #00706B",
"=. c #00706B",
"-. c #00716B",
";. c #00736B",
":. c #00756C",
">. c #00776C",
",. c #007A6D",
"<. c #007C6D",
"1. c #007F6D",
"2. c #007F6D",
"3. c #00806D",
"4. c #00806D",
"5. c #00806D",
"6. c #00816E",
"7. c #00816E",
"8. c #00816E",
"9. c #00816E",
"0. c #00816E",
"q. c #00826E",
"w. c #00846E",
"e. c #00856E",
"r. c #00876F",
"t. c #00896F",
"y. c #008A6F",
"u. c #008B6F",
"i. c #008C6F",
"p. c #008C6F",
"a. c #008C6F",
"s. c #008C6F",
"d. c #008C6F",
"f. c #008C6F",
"g. c #018B70",
"h. c #028B70",
"j. c #058B70",
"k. c #0A8B71",
"l. c #118A73",
"z. c #1C8A75",
"x. c #298A77",
"c. c #398B7B",
"v. c #4F8C80",
"b. c #618D84",
"n. c #768E8A",
"m. c #88908E",
"M. c #929292",
"N. c #939393",
"B. c gray58",
"V. c #959595",
"C. c gray59",
"Z. c #979797",
"A. c #989898",
"S. c gray60",
"D. c #9A9A9A",
"F. c #9B9B9B",
"G. c gray61",
"H. c #9D9D9D",
"J. c gray62",
"K. c #9F9F9F",
"L. c #A0A0A0",
"P. c gray63",
"I. c #A2A2A2",
"U. c gray64",
"Y. c #A4A4A4",
"T. c #A5A5A5",
"R. c #ABA69E",
"E. c #B1A898",
"W. c #B6A992",
"Q. c #BBAA8D",
"!. c #BFAC89",
"~. c #C3AD85",
"^. c #C7AD81",
"/. c #CDAE79",
"(. c #D2AF73",
"). c #D8B06A",
"_. c #DCB165",
"`. c #DEB163",
"'. c #DEB263",
"]. c #DDB266",
"[. c #DAB26D",
"{. c #D9B371",
"}. c #D6B477",
"|. c #D3B57F",
" X c #CFB68A",
".X c #CDB68F",
"XX c #CBB795",
"oX c #C9B99B",
"OX c #C7BAA3",
"+X c #C4BBAB",
"@X c #C1BDB4",
"#X c gray75",
"$X c #C0C0C0",
"%X c #C1C1C1",
"&X c gray76",
"*X c #C3C3C3",
"=X c gray78",
"-X c #D2D2D2",
";X c #DDDDDD",
":X c #E7E7E7",
">X c #EFEFEF",
",X c #F6F6F6",
"<X c gray98",
"1X c gray99",
"2X c #FDFDFD",
"3X c #FEFEFE",
"4X c #FEFEFE",
"5X c #FEFEFE",
"6X c #FEFEFE",
"7X c #FEFEFE",
"8X c #FEFEFE",
"9X c #FEFEFE",
"0X c #FEFEFE",
"qX c #FEFEFE",
"wX c #FEFEFE",
"eX c #FEFEFE",
"rX c #FEFEFE",
"tX c #FEFEFE",
"yX c #FEFEFE",
"uX c #FEFEFE",
"iX c #FEFEFE",
"pX c #FEFEFE",
"aX c white",
"sX c white",
"dX c white",
"fX c white",
"gX c white",
"hX c white",
"jX c white",
"kX c white",
"lX c white",
"zX c white",
"xX c white",
"cX c white",
"vX c white",
"bX c white",
"nX c white",
"mX c white",
"MX c white",
"NX c white",
"BX c white",
"VX c white",
"CX c white",
"ZX c white",
"AX c white",
"SX c white",
"DX c white",
"FX c white",
"GX c white",
"HX c white",
"JX c white",
"KX c white",
"LX c white",
"PX c white",
"IX c white",
"UX c white",
/* pixels */
"MXMXMXMXMXMXMXMXMXMXMXMXMXMXMXMXMXMXMXMXMXMXMXMXMXMXMXMXMXMXMXMX",
"MXMXMXMXMXMXMXMXMXMXMXMXMXMXMXMXMXMXMXMXMXMXMXMXMXMXMXMXMXMXMXMX",
"MXMXMXMXMXMXMXMXMXMXMXMXMXMXMXMXMXMXMXMXMXMXMXMXMXMXMXMXMXMXMXMX",
"MXMXMXMXMXMXMXMXMXMXMXMXMXMXMX'.'.'.MXMXMXMXMXMXMXMXMXMXMXMXMXMX",
"MXMXMXMXMXMXMXMXMXMXMXMXMXMX% S S S % MXMXMXMXMXMXMXMXMXMXMXMXMX",
"MXMXMXMXMXMXMXMXMXMXMXMXMXMX% U U U % MXMXMXMXMXMXMXMXMXMXMXMXMX",
"MXMXMXMXMXMXMXMXMXMXMXMXMXMXMX% U % MXMXMXMXMXMXMXMXMXMXMXMXMXMX",
"MXMXMXMXMXMXMXMXMXMXMXMXMXMXMX% 5 % MXMXMXMXMXMXMXMXMXMXMXMXMXMX",
"MXMXMXMXMXMXMXMXMXMXMXMXMXMXMX% 5 % MXMXMXMXMXMXMXMXMXMXMXMXMXMX",
"MXMXMXMXMXMXMXMXMXMXMXMXMXMXMX% 5 % MXMXMXMXMXMXMXMXMXMXMXMXMXMX",
"MXMXMXMXMXMXMXMXMXMXMXMXMXMX% 5 5 s % MXMXMXMXMXMXMXMXMXMXMXMXMX",
"MXMXMXMXMXMXMXMXMXMXMXMXMX% s MX5 s s % MXMXMXMXMXMXMXMXMXMXMXMX",
"MXMXMXMXMXMXMXMXMXMXMXMXMX% MX[ [  .>.% MXMXMXMXMXMXMXMXMXMXMXMX",
"MXMXMXMXMXMXMXMXMXMXMXMXMX% 8.[ [  .s.% MXMXMXMXMXMXMXMXMXMXMXMX",
"MXMXMXMXMXMXMXMXMXMXMXMXMX% 8.*.*.8.s.% MXMXMXMXMXMXMXMXMXMXMXMX",
"MXMXMXMXMXMXMXMXMXMXMXMXMX% s.*.*.8.8.% MXMXMXMXMXMXMXMXMXMXMXMX",
"MXMXMXMXMXMXMXMXMXMXMXMXMX% s.*.*.8.8.% MXMXMXMXMXMXMXMXMXMXMXMX",
"MXMXMXMXMXMXMXMXMXMXMXMXMX% s.*.*.8.8.% MXMXMXMXMXMXMXMXMXMXMXMX",
"MXMXMXMXMXMXMXMXMXMXMXMXMX% s.*.*.8.8.% MXMXMXMXMXMXMXMXMXMXMXMX",
"MXMXMXMXMXMXMXMXMXMXMXMXMX% s.*.*.8.8.% MXMXMXMXMXMXMXMXMXMXMXMX",
"MXMXMXMXMXMXMXMXMXMXMXMXMX% s.*.*.8.8.% MXMXMXMXMXMXMXMXMXMXMXMX",
"MXMXMXMXMXMXMXMXMXMXMXMXMX% s.*.*.8.s.% MXMXMXMXMXMXMXMXMXMXMXMX",
"MXMXMXMXMXMXMXMXMXMXMXMXMX% s.*.*.8.s.% MXMXMXMXMXMXMXMXMXMXMXMX",
"MXMXMXMXMXMXMXMXMXMXMXMXMX% s.*.*.8.s.% MXMXMXMXMXMXMXMXMXMXMXMX",
"MXMXMXMXMXMXMXMXMXMXMXMXMX% s.*.*.8.s.% MXMXMXMXMXMXMXMXMXMXMXMX",
"MXMXMXMXMXMXMXMXMXMXMXMXMX% s.*.*.8.MX% MXMXMXMXMXMXMXMXMXMXMXMX",
"MXMXMXMXMXMXMXMXMXMXMXMXMXMX% 8.*.MX% MXMXMXMXMXMXMXMXMXMXMXMXMX",
"MXMXMXMXMXMXMXMXMXMXMXMXMXMXMX% % % MXMXMXMXMXMXMXMXMXMXMXMXMXMX",
"MXMXMXMXMXMXMXMXMXMXMXMXMXMXMXMXMXMXMXMXMXMXMXMXMXMXMXMXMXMXMXMX",
"MXMXMXMXMXMXMXMXMXMXMXMXMXMXMXMXMXMXMXMXMXMXMXMXMXMXMXMXMXMXMXMX",
"MXMXMXMXMXMXMXMXMXMXMXMXMXMXMXMXMXMXMXMXMXMXMXMXMXMXMXMXMXMXMXMX",
"MXMXMXMXMXMXMXMXMXMXMXMXMXMXMXMXMXMXMXMXMXMXMXMXMXMXMXMXMXMXMXMX"
};
