/* XPM */
static char *_7368_9056ba6ef343e03b5c7be14bb6f9671578b28972a719b7a3bef14503a0b90684_3[] = {
/* columns rows colors chars-per-pixel */
"32 32 256 2 ",
"   c black",
".  c #020502",
"X  c #020D03",
"o  c #001003",
"O  c #001003",
"+  c #001003",
"@  c #001003",
"#  c #001003",
"$  c #001604",
"%  c #001C05",
"&  c #002006",
"*  c #002607",
"=  c #002307",
"-  c #022106",
";  c #041D06",
":  c #091805",
">  c #0E1606",
",  c #131306",
"<  c #181006",
"1  c #1B0E06",
"2  c #1D0C05",
"3  c #1F0B05",
"4  c #200B05",
"5  c #210A06",
"6  c #220B06",
"7  c #230B07",
"8  c #240D08",
"9  c #250E09",
"0  c #260F0A",
"q  c #27100B",
"w  c #28110C",
"e  c #29120D",
"r  c #2A130F",
"t  c #2B1410",
"y  c #2D1511",
"u  c #2E1512",
"i  c #2F1613",
"p  c #2F1614",
"a  c #301714",
"s  c #301714",
"d  c #301714",
"f  c #301714",
"g  c #301714",
"h  c #301714",
"j  c #301714",
"k  c #301714",
"l  c #301714",
"z  c #301814",
"x  c #301814",
"c  c #301A13",
"v  c #301B13",
"b  c #301C13",
"n  c #301F13",
"m  c #302113",
"M  c #302314",
"N  c #302414",
"B  c #2E2514",
"V  c #2F2615",
"C  c #2F2615",
"Z  c #302616",
"A  c #302716",
"S  c #302717",
"D  c #302717",
"F  c #302717",
"G  c #312818",
"H  c #312818",
"J  c #312818",
"K  c #312818",
"L  c #312818",
"P  c #312918",
"I  c #312B18",
"U  c #312C18",
"Y  c #312F19",
"T  c #313019",
"R  c #313119",
"E  c #313219",
"W  c #313319",
"Q  c #313319",
"!  c #303319",
"~  c #2F3319",
"^  c #2F3319",
"/  c #30341A",
"(  c #30341A",
")  c #32351C",
"_  c #33361E",
"`  c #343720",
"'  c #363923",
"]  c #393B27",
"[  c #3D3F2D",
"{  c #414233",
"}  c #46473B",
"|  c #4B4C43",
" . c #52524C",
".. c #575854",
"X. c gray37",
"o. c #5F5F5F",
"O. c #606060",
"+. c gray38",
"@. c #626262",
"#. c gray39",
"$. c #646464",
"%. c #656565",
"&. c gray40",
"*. c #676767",
"=. c #686868",
"-. c DimGray",
";. c #6A6A6A",
":. c gray42",
">. c #6C6C6C",
",. c #6D6D6D",
"<. c gray43",
"1. c #6F6F6F",
"2. c gray44",
"3. c #717171",
"4. c #727272",
"5. c gray45",
"6. c #747474",
"7. c gray46",
"8. c #767676",
"9. c #777777",
"0. c gray47",
"q. c #797979",
"w. c gray48",
"e. c #7B7B7B",
"r. c #7C7C7C",
"t. c gray49",
"y. c #7E7E7E",
"u. c gray50",
"i. c #808080",
"p. c #818181",
"a. c gray51",
"s. c #838383",
"d. c #848484",
"f. c gray52",
"g. c #868686",
"h. c gray53",
"j. c #888888",
"k. c #898989",
"l. c gray54",
"z. c #8B8B8B",
"x. c gray55",
"c. c #8D8D8D",
"v. c #8E8E8E",
"b. c gray56",
"n. c #909090",
"m. c gray57",
"M. c #929292",
"N. c #939393",
"B. c gray58",
"V. c #959595",
"C. c gray59",
"Z. c #979797",
"A. c #989898",
"S. c gray60",
"D. c #9A9A9A",
"F. c #9B9B9B",
"G. c gray61",
"H. c #9D9D9D",
"J. c gray62",
"K. c #9F9F9F",
"L. c #A0A0A0",
"P. c gray63",
"I. c #A2A2A2",
"U. c gray64",
"Y. c #A4A4A4",
"T. c #A5A5A5",
"R. c gray65",
"E. c #A7A7A7",
"W. c gray66",
"Q. c #A9A9A9",
"!. c #AAAAAA",
"~. c gray67",
"^. c #ACACAC",
"/. c gray68",
"(. c #AEAEAE",
"). c #AFAFAF",
"_. c gray69",
"`. c #B1B1B1",
"'. c #B2B2B2",
"]. c gray70",
"[. c #B4B4B4",
"{. c gray71",
"}. c #B6B6B6",
"|. c #B7B7B7",
" X c gray72",
".X c #B9B9B9",
"XX c gray73",
"oX c #BBBBBB",
"OX c #BCBCBC",
"+X c gray74",
"@X c gray",
"#X c gray75",
"$X c #C0C0C0",
"%X c #C1C1C1",
"&X c gray76",
"*X c #C3C3C3",
"=X c gray78",
"-X c #D2D2D2",
";X c #DDDDDD",
":X c #E7E7E7",
">X c #EFEFEF",
",X c #F6F6F6",
"<X c gray98",
"1X c gray99",
"2X c #FDFDFD",
"3X c #FEFEFE",
"4X c #FEFEFE",
"5X c #FEFEFE",
"6X c #FEFEFE",
"7X c #FEFEFE",
"8X c #FEFEFE",
"9X c #FEFEFE",
"0X c #FEFEFE",
"qX c #FEFEFE",
"wX c #FEFEFE",
"eX c #FEFEFE",
"rX c #FEFEFE",
"tX c #FEFEFE",
"yX c #FEFEFE",
"uX c #FEFEFE",
"iX c #FEFEFE",
"pX c #FEFEFE",
"aX c white",
"sX c white",
"dX c white",
"fX c white",
"gX c white",
"hX c white",
"jX c white",
"kX c white",
"lX c white",
"zX c white",
"xX c white",
"cX c white",
"vX c white",
"bX c white",
"nX c white",
"mX c white",
"MX c white",
"NX c white",
"BX c white",
"VX c white",
"CX c white",
"ZX c white",
"AX c white",
"SX c white",
"DX c white",
"FX c white",
"GX c white",
"HX c white",
"JX c white",
"KX c white",
"LX c white",
"PX c white",
"IX c white",
"UX c white",
/* pixels */
"MXMXMXMXMXMXMXMXMXMXMXMXMXMXMXMXMXMXMXMXMXMXMXMXMXMXMXMXMXMXMXMX",
"MXMXMXMXMXMXMXMXMXMXMXMXMXMXMXMXMXMXMXMXMXMXMXMXMXMXMXMXMXMXMXMX",
"MXMXMXMXMXMXMXMXMXMXMXMXMXMXMXMXMXMXMXMXMXMXMXMXMXMXMXMXMXMXMXMX",
"MXMXMXMXMXMXMXMXMXMXMXMXMXMXMX6 3 6 MXMXMXMXMXMXMXMXMXMXMXMXMXMX",
"MXMXMXMXMXMXMXMXMXMXMXMXMXMXO 3 3 3 O MXMXMXMXMXMXMXMXMXMXMXMXMX",
"MXMXMXMXMXMXMXMXMXMXMXMXMXMXO N b b O MXMXMXMXMXMXMXMXMXMXMXMXMX",
"MXMXMXMXMXMXMXMXMXMXMXMXMXMXMXO b O MXMXMXMXMXMXMXMXMXMXMXMXMXMX",
"MXMXMXMXMXMXMXMXMXMXMXMXMXMXMXO * O MXMXMXMXMXMXMXMXMXMXMXMXMXMX",
"MXMXMXMXMXMXMXMXMXMXMXMXMXMXMXO * O MXMXMXMXMXMXMXMXMXMXMXMXMXMX",
"MXMXMXMXMXMXMXMXMXMXMXMXMXMXMXO * O MXMXMXMXMXMXMXMXMXMXMXMXMXMX",
"MXMXMXMXMXMXMXMXMXMXMXMXMXMXO * * * O MXMXMXMXMXMXMXMXMXMXMXMXMX",
"MXMXMXMXMXMXMXMXMXMXMXMXMXO * MX* * * O MXMXMXMXMXMXMXMXMXMXMXMX",
"MXMXMXMXMXMXMXMXMXMXMXMXMXO MXy y B ^ O MXMXMXMXMXMXMXMXMXMXMXMX",
"MXMXMXMXMXMXMXMXMXMXMXMXMXO J y y B ( O MXMXMXMXMXMXMXMXMXMXMXMX",
"MXMXMXMXMXMXMXMXMXMXMXMXMXO J g g J ( O MXMXMXMXMXMXMXMXMXMXMXMX",
"MXMXMXMXMXMXMXMXMXMXMXMXMXO ( g g J J O MXMXMXMXMXMXMXMXMXMXMXMX",
"MXMXMXMXMXMXMXMXMXMXMXMXMXO ( g g J J O MXMXMXMXMXMXMXMXMXMXMXMX",
"MXMXMXMXMXMXMXMXMXMXMXMXMXO ( g g J J O MXMXMXMXMXMXMXMXMXMXMXMX",
"MXMXMXMXMXMXMXMXMXMXMXMXMXO ( g g J J O MXMXMXMXMXMXMXMXMXMXMXMX",
"MXMXMXMXMXMXMXMXMXMXMXMXMXO ( g g J J O MXMXMXMXMXMXMXMXMXMXMXMX",
"MXMXMXMXMXMXMXMXMXMXMXMXMXO ( g g J J O MXMXMXMXMXMXMXMXMXMXMXMX",
"MXMXMXMXMXMXMXMXMXMXMXMXMXO ( g g J ( O MXMXMXMXMXMXMXMXMXMXMXMX",
"MXMXMXMXMXMXMXMXMXMXMXMXMXO ( g g J ( O MXMXMXMXMXMXMXMXMXMXMXMX",
"MXMXMXMXMXMXMXMXMXMXMXMXMXO ( g g J ( O MXMXMXMXMXMXMXMXMXMXMXMX",
"MXMXMXMXMXMXMXMXMXMXMXMXMXO ( g g J ( O MXMXMXMXMXMXMXMXMXMXMXMX",
"MXMXMXMXMXMXMXMXMXMXMXMXMXO ( g g J MXO MXMXMXMXMXMXMXMXMXMXMXMX",
"MXMXMXMXMXMXMXMXMXMXMXMXMXMXO J g MXO MXMXMXMXMXMXMXMXMXMXMXMXMX",
"MXMXMXMXMXMXMXMXMXMXMXMXMXMXMXO O O MXMXMXMXMXMXMXMXMXMXMXMXMXMX",
"MXMXMXMXMXMXMXMXMXMXMXMXMXMXMXMXMXMXMXMXMXMXMXMXMXMXMXMXMXMXMXMX",
"MXMXMXMXMXMXMXMXMXMXMXMXMXMXMXMXMXMXMXMXMXMXMXMXMXMXMXMXMXMXMXMX",
"MXMXMXMXMXMXMXMXMXMXMXMXMXMXMXMXMXMXMXMXMXMXMXMXMXMXMXMXMXMXMXMX",
"MXMXMXMXMXMXMXMXMXMXMXMXMXMXMXMXMXMXMXMXMXMXMXMXMXMXMXMXMXMXMXMX"
};
