/* XPM */
static char *_7368_9056ba6ef343e03b5c7be14bb6f9671578b28972a719b7a3bef14503a0b90684_0[] = {
/* columns rows colors chars-per-pixel */
"32 32 256 2 ",
"   c #000F02",
".  c #001003",
"X  c #001003",
"o  c #001003",
"O  c #001704",
"+  c #001F06",
"@  c #002306",
"#  c #002807",
"$  c #012507",
"%  c #032307",
"&  c #061E06",
"*  c #0C1505",
"=  c #111205",
"-  c #160F04",
";  c #1A0D04",
":  c #1D0B04",
">  c #1F0A04",
",  c #210904",
"<  c #230904",
"1  c #240905",
"2  c #250A05",
"3  c #260A05",
"4  c #270A06",
"5  c #280B06",
"6  c #280B06",
"7  c #280B06",
"8  c #290C07",
"9  c #290D08",
"0  c #2B0E0A",
"q  c #2B0F0B",
"w  c #2C110D",
"e  c #2D120F",
"r  c #2D1411",
"t  c #2F1513",
"y  c #301614",
"u  c #301614",
"i  c #301614",
"p  c #341615",
"a  c #381517",
"s  c #401319",
"d  c #45121B",
"f  c #46111B",
"g  c #45121B",
"h  c #41131A",
"j  c #3A1417",
"k  c #361516",
"l  c #301714",
"z  c #301813",
"x  c #301913",
"c  c #2F1B12",
"v  c #2F1C12",
"b  c #2E1E12",
"n  c #2D2012",
"m  c #2D2111",
"M  c #2C2211",
"N  c #2C2311",
"B  c #2C2412",
"V  c #2D2413",
"C  c #2D2513",
"Z  c #2D2614",
"A  c #2D2615",
"S  c #2E2715",
"D  c #2E2716",
"F  c #2E2716",
"G  c #2F2817",
"H  c #2F2817",
"J  c #2F2817",
"K  c #2F2917",
"L  c #2F2A17",
"P  c #2F2B18",
"I  c #2F2D18",
"U  c #2F2E18",
"Y  c #2F3019",
"T  c #2F3119",
"R  c #2F3219",
"E  c #2F3319",
"W  c #2F3319",
"Q  c #303319",
"!  c #31341A",
"~  c #31341A",
"^  c #31341A",
"/  c #31341B",
"(  c #32351C",
")  c #33351D",
"_  c #34371F",
"`  c #363923",
"'  c #383A25",
"]  c #3A3C29",
"[  c #3D3F2D",
"{  c #414334",
"}  c #47483C",
"|  c #4A4C42",
" . c #4D4E45",
".. c #505149",
"X. c #53544D",
"o. c #565752",
"O. c #5A5A57",
"+. c #5D5E5C",
"@. c #626262",
"#. c gray39",
"$. c #646464",
"%. c #656565",
"&. c gray40",
"*. c #676767",
"=. c #686868",
"-. c DimGray",
";. c #6A6A6A",
":. c gray42",
">. c #6C6C6C",
",. c #6D6D6D",
"<. c gray43",
"1. c #6F6F6F",
"2. c gray44",
"3. c #717171",
"4. c #727272",
"5. c gray45",
"6. c #747474",
"7. c gray46",
"8. c #767676",
"9. c #777777",
"0. c gray47",
"q. c #797979",
"w. c gray48",
"e. c #7B7B7B",
"r. c #7C7C7C",
"t. c #7F7D7A",
"y. c #827F79",
"u. c #858178",
"i. c #888276",
"p. c #8B8475",
"a. c #8D8574",
"s. c #908672",
"d. c #93886F",
"f. c #96896D",
"g. c #97896C",
"h. c #998A6A",
"j. c #9A8B69",
"k. c #9B8B69",
"l. c #9C8C68",
"z. c #9D8C68",
"x. c #9E8C66",
"c. c #9E8D68",
"v. c #9E8D69",
"b. c #9E8D6A",
"n. c #9E8E6B",
"m. c #9E8E6D",
"M. c #9D8F6F",
"N. c #9D8F71",
"B. c #9D9075",
"V. c #9C9179",
"C. c #9C927D",
"Z. c #9C9380",
"A. c #9C9483",
"S. c #9C9587",
"D. c #9C978B",
"F. c #9C988F",
"G. c #9D9A93",
"H. c #9D9C98",
"J. c gray62",
"K. c #9F9F9F",
"L. c #A0A0A0",
"P. c gray63",
"I. c #A2A2A2",
"U. c gray64",
"Y. c #A4A4A4",
"T. c #A5A5A5",
"R. c gray65",
"E. c #A7A7A7",
"W. c gray66",
"Q. c #A9A9A9",
"!. c #AAAAAA",
"~. c gray67",
"^. c #ACACAC",
"/. c gray68",
"(. c #AEAEAE",
"). c #AFAFAF",
"_. c gray69",
"`. c #B1B1B1",
"'. c #B2B2B2",
"]. c gray70",
"[. c #B4B4B4",
"{. c gray71",
"}. c #B6B6B6",
"|. c #B7B7B7",
" X c gray72",
".X c #B9B9B9",
"XX c gray73",
"oX c #BBBBBB",
"OX c #BCBCBC",
"+X c gray74",
"@X c gray",
"#X c gray75",
"$X c #C0C0C0",
"%X c #C1C1C1",
"&X c gray76",
"*X c #C3C3C3",
"=X c gray78",
"-X c #D2D2D2",
";X c #DDDDDD",
":X c #E7E7E7",
">X c #EFEFEF",
",X c #F6F6F6",
"<X c gray98",
"1X c gray99",
"2X c #FDFDFD",
"3X c #FEFEFE",
"4X c #FEFEFE",
"5X c #FEFEFE",
"6X c #FEFEFE",
"7X c #FEFEFE",
"8X c #FEFEFE",
"9X c #FEFEFE",
"0X c #FEFEFE",
"qX c #FEFEFE",
"wX c #FEFEFE",
"eX c #FEFEFE",
"rX c #FEFEFE",
"tX c #FEFEFE",
"yX c #FEFEFE",
"uX c #FEFEFE",
"iX c #FEFEFE",
"pX c #FEFEFE",
"aX c white",
"sX c white",
"dX c white",
"fX c white",
"gX c white",
"hX c white",
"jX c white",
"kX c white",
"lX c white",
"zX c white",
"xX c white",
"cX c white",
"vX c white",
"bX c white",
"nX c white",
"mX c white",
"MX c white",
"NX c white",
"BX c white",
"VX c white",
"CX c white",
"ZX c white",
"AX c white",
"SX c white",
"DX c white",
"FX c white",
"GX c white",
"HX c white",
"JX c white",
"KX c white",
"LX c white",
"PX c white",
"IX c white",
"UX c white",
/* pixels */
"MXMXMXMXMXMXMXMXMXMXMXMXMXMXMXMXMXMXMXMXMXMXMXMXMXMXMXMXMXMXMXMX",
"MXMXMXMXMXMXMXMXMXMXMXMXMXMXMXMXMXMXMXMXMXMXMXMXMXMXMXMXMXMXMXMX",
"MXMXMXMXMXMXMXMXMXMXMXMXMXMXMXMXMXMXMXMXMXMXMXMXMXMXMXMXMXMXMXMX",
"MXMXMXMXMXMXMXMXMXMXMXMXMXMXMX6 > 6 MXMXMXMXMXMXMXMXMXMXMXMXMXMX",
"MXMXMXMXMXMXMXMXMXMXMXMXMXMXX > > > X MXMXMXMXMXMXMXMXMXMXMXMXMX",
"MXMXMXMXMXMXMXMXMXMXMXMXMXMXX V v v X MXMXMXMXMXMXMXMXMXMXMXMXMX",
"MXMXMXMXMXMXMXMXMXMXMXMXMXMXMXX v X MXMXMXMXMXMXMXMXMXMXMXMXMXMX",
"MXMXMXMXMXMXMXMXMXMXMXMXMXMXMXX # X MXMXMXMXMXMXMXMXMXMXMXMXMXMX",
"MXMXMXMXMXMXMXMXMXMXMXMXMXMXMXX # X MXMXMXMXMXMXMXMXMXMXMXMXMXMX",
"MXMXMXMXMXMXMXMXMXMXMXMXMXMXMXX # X MXMXMXMXMXMXMXMXMXMXMXMXMXMX",
"MXMXMXMXMXMXMXMXMXMXMXMXMXMXX # # # X MXMXMXMXMXMXMXMXMXMXMXMXMX",
"MXMXMXMXMXMXMXMXMXMXMXMXMXX # MX# # # X MXMXMXMXMXMXMXMXMXMXMXMX",
"MXMXMXMXMXMXMXMXMXMXMXMXMXX MXZ r r W X MXMXMXMXMXMXMXMXMXMXMXMX",
"MXMXMXMXMXMXMXMXMXMXMXMXMXX ^ Z r r H X MXMXMXMXMXMXMXMXMXMXMXMX",
"MXMXMXMXMXMXMXMXMXMXMXMXMXX 6 6 l l H X MXMXMXMXMXMXMXMXMXMXMXMX",
"MXMXMXMXMXMXMXMXMXMXMXMXMXX x.6 l l ^ X MXMXMXMXMXMXMXMXMXMXMXMX",
"MXMXMXMXMXMXMXMXMXMXMXMXMXX x.6 l l ^ X MXMXMXMXMXMXMXMXMXMXMXMX",
"MXMXMXMXMXMXMXMXMXMXMXMXMXX f 6 l l ^ X MXMXMXMXMXMXMXMXMXMXMXMX",
"MXMXMXMXMXMXMXMXMXMXMXMXMXX f 6 l l ^ X MXMXMXMXMXMXMXMXMXMXMXMX",
"MXMXMXMXMXMXMXMXMXMXMXMXMXX x.6 l l ^ X MXMXMXMXMXMXMXMXMXMXMXMX",
"MXMXMXMXMXMXMXMXMXMXMXMXMXX x.6 l l ^ X MXMXMXMXMXMXMXMXMXMXMXMX",
"MXMXMXMXMXMXMXMXMXMXMXMXMXX 6 6 l l ^ X MXMXMXMXMXMXMXMXMXMXMXMX",
"MXMXMXMXMXMXMXMXMXMXMXMXMXX ^ H l l ^ X MXMXMXMXMXMXMXMXMXMXMXMX",
"MXMXMXMXMXMXMXMXMXMXMXMXMXX ^ H l l ^ X MXMXMXMXMXMXMXMXMXMXMXMX",
"MXMXMXMXMXMXMXMXMXMXMXMXMXX ^ H l l ^ X MXMXMXMXMXMXMXMXMXMXMXMX",
"MXMXMXMXMXMXMXMXMXMXMXMXMXX ^ H l l MXX MXMXMXMXMXMXMXMXMXMXMXMX",
"MXMXMXMXMXMXMXMXMXMXMXMXMXMXX H l MXX MXMXMXMXMXMXMXMXMXMXMXMXMX",
"MXMXMXMXMXMXMXMXMXMXMXMXMXMXMXX X X MXMXMXMXMXMXMXMXMXMXMXMXMXMX",
"MXMXMXMXMXMXMXMXMXMXMXMXMXMXMXMXMXMXMXMXMXMXMXMXMXMXMXMXMXMXMXMX",
"MXMXMXMXMXMXMXMXMXMXMXMXMXMXMXMXMXMXMXMXMXMXMXMXMXMXMXMXMXMXMXMX",
"MXMXMXMXMXMXMXMXMXMXMXMXMXMXMXMXMXMXMXMXMXMXMXMXMXMXMXMXMXMXMXMX",
"MXMXMXMXMXMXMXMXMXMXMXMXMXMXMXMXMXMXMXMXMXMXMXMXMXMXMXMXMXMXMXMX"
};
