/* XPM */
static char *_1079_bb4e67b501f9a5d70811052eb5ad4c88e614eadb5e0d9f417f2d19456487b31a_2[] = {
/* columns rows colors chars-per-pixel */
"59 105 32 1 ",
"  c black",
". c #5C5CA9",
"X c #3F3F74",
"o c #222034",
"O c #3C447C",
"+ c #4F5AA5",
"@ c #616FCB",
"# c #333A6C",
"$ c #FFE0B1",
"% c #8F563B",
"& c #45212D",
"* c #F9BF99",
"= c #F5A489",
"- c #CB7173",
"; c #9C859F",
": c #954A51",
"> c white",
", c #639BFF",
"< c #46426C",
"1 c #A6AEE1",
"2 c #6A78AC",
"3 c #E1EAFD",
"4 c #FFF3AB",
"5 c #7C8DB5",
"6 c #9CA2CC",
"7 c None",
"8 c black",
"9 c black",
"0 c black",
"q c black",
"w c black",
"e c black",
/* pixels */
"77777777777777777777777777777777777777777777777777777777777",
"77777777777777777777777777777777777777777777777777777777777",
"77777777777777777777777777777777777777777777777777777777777",
"77777777777777777777777777777777777777777777777777777777777",
"77777777777777777777777777ooooooooo777777777777777777777777",
"777777777777777777777777oO+++OoO+++Oo7777777777777777777777",
"7777777777777777777777oO+@@@@+O+@@@@+Oo77777777777777777777",
"777777777777777777777o@@@@@@@@+@@@@@@@@o7777777777777777777",
"77777777777777777777o@@@@@@o#+++#o@@@@@@o777777777777777777",
"7777777777777777777o@@@@####+@@@+####@@@@o77777777777777777",
"777777777777777777oO@@##+@@#@@@@@O+@+##@@Oo7777777777777777",
"777777777777777777#+@#+@@@@O@@@@@+O@@@+#@+#7777777777777777",
"77777777777777777oO@@#@@+@@+@@@@@@O@@@@#@@Oo777777777777777",
"77777777777777777#+@#+@@+@@+@@@@@@O@@@@+#@+#777777777777777",
"77777777777777777O@+#@@+@@@+@@@@@@O@@@@@#+@O777777777777777",
"7777777777777777oO@O#@@+@@@+@@@@@@#+@@@@#O@Oo77777777777777",
"7777777777777777oO+#+@@+@@@+@@@@@@#O+@@@+#+Oo77777777777777",
"7777777777777777oOO#@@@+@@@O+@@@@@+o#@@@@#OOo77777777777777",
"7777777777777777oOo+@@+#@@@O#+@@@@@o#+@@@+oOo77777777777777",
"7777777777777777o#+@@@##@@+#o#@@@@@#o#@@@@+#o77777777777777",
"77777777777777ooo@@@@+#o+@##$#+@@@@#o##+@@@@ooo777777777777",
"77777777777777o#++@+##Oo##Oo$o#+@@+#%o######@+o777777777777",
"777777777777777o#####Ooo#Oo***o#OO##**oOOOOO#o7777777777777",
"777777777777777&ooo#Oo==oo=*****oooo===oooooo&7777777777777",
"777777777777777&=oOoo-    -=*****=-    -oOOo=&7777777777777",
"777777777777777o&#OOo      -*****-      #++#&o7777777777777",
"777777777777777o+#++#-&;    *$$$*    ;&-O++#+o7777777777777",
"777777777777777o+#@@O*:>XX>X$$$$$X>XX>:*O@@#+o7777777777777",
"777777777777777o+#@@O$=>,XX,$$$$$,XX,>=$O@@#+o7777777777777",
"777777777777777o+o+@O=$=>,,$$$$$$$,,>=$=O@+o+o7777777777777",
"777777777777777o++#@O&=*=**$$$$$$$**=*=&O@#++o7777777777777",
"777777777777777o++o+#+&=$$$$$$$$$$$$$=&+#+o++o7777777777777",
"777777777777777O+++oo++&=$$$$$$$$$$$=&++oo+++O7777777777777",
"77777777777777oO+++++&oo&:=$$-=-$$=:&oo&+++++Oo777777777777",
"77777777777777o++++&:=<6o-&:=$$$=:&-o6<=:&++++o777777777777",
"77777777777777o+++&=$=<6<=--&&&&&--=<6<=$=&+++o777777777777",
"77777777777777o++&$$$$<1<:==-----==:<1<$$$$&++o777777777777",
"77777777777777o++:$$$$<1<=:-=---=-:=<1<$$$$:++o777777777777",
"77777777777777o+&=$$$$2><$$$$$$$$$$$<>2$$$$=&+o777777777777",
"77777777777777o+:$$$$<>><$$$$$$$$$$$<>><$$$$:+o777777777777",
"77777777777777o&=$$$$<332****-4-****233<$$$$=&o777777777777",
"77777777777777o:$$$$$<133<***=:=***<331<$$$$$:o777777777777",
"77777777777777&=$$$$$21332****:****23312$$$$$=&777777777777",
"77777777777777&$$$$$<13333<$**-**$<33331<$$$$$&777777777777",
"77777777777777:$$$$$23>>>>>2<*-*<2>>>>>32$$$$$:777777777777",
"7777777777777&=$$$$<1>>>>>>3<212<3>>>>>>1<$$$$=&77777777777",
"7777777777777&$$$$$23>>>>>>>13>31>>>>>>>32$$$$$&77777777777",
"7777777777777:$$$$<6>>>>>>>>31>13>>>>>>>>6<$$$$:77777777777",
"777777777777&=$$$$<3>>>>>>>>>323>>>>>>>>>3<$$$$=&7777777777",
"777777777777&$$$$$<3>>>>>>>>>>1>>>>>>>>>>3<$$$$$&7777777777",
"777777777777:$$$$$<13>>>>>>>>313>>>>>>>>31<$$$$$:7777777777",
"77777777777&=$$$$$<13>>33>>>>363>>>>33>>31<$$$$$=&777777777",
"77777777777&$$$$$$<1133>>33313>31333>>3311<$$$$$$&777777777",
"77777777777:$$$$$$<5113>>31113>31113>>3115<$$$$$$:777777777",
"7777777777&=$$$$$=&<515331111565111133515<&=$$$$$=&77777777",
"7777777777&$$$$$$:7&<125511152<251115521<&7:$$$$$$&77777777",
"7777777777&$$$$$$&7&=<511152<===<251115<=&7&$$$$$$:77777777",
"777777777&=$$$$$=&7:$$<<<<<$$$-$$$<<<<<$$:7&=$$$$$=&7777777",
"777777777:$$$$$$:7&<$$$$$$$$$$:$$$$$$$$$$<&7:$$$$$$:7777777",
"77777777&=$$$$$$&7<12<<<<$$$$$&$$$$$<<<<21<7&$$$$$$=&777777",
"77777777:$$$$$$$&7<3>>>312<<$$-$$<<213>>>3<7&$$$$$$$:777777",
"7777777&-$$$$$$=&7<>>>>>>>312<<<213>>>>>>><7&=$$$$$$-&77777",
"7777777:==$$$$$:77:<<213>>>>>>>>>>>>>312<<:77:$$$$$==:77777",
"777777&-=======&7&=$$$<<213>>>3>>>312<<$$$=&7&=======-&7777",
"77777&-==-==-==&7&$$$$$$$<213>1>312<$$$$$$$&7&==-==-==-&777",
"77777&-=:===:==&7&$$$$$$$$$<11511<$$$$$$$$$&7&==:===:=-&777",
"77777&-:===:==-&7&$$$$$$$$$$<525<$$$$$$$$$$&7&-==:===:-&777",
"777777&--&:===&77&$$$$$$$$$$$<<<$$$$$$$$$$$&77&===:&--&7777",
"777777&&&7&--&777&=$$$$$$$$$$$:$$$$$$$$$$$=&777&--&7&&&7777",
"77777777777&&77777:$$$$$$$$$$$:$$$$$$$$$$$:77777&&777777777",
"777777777777777777&$$$$$$$$$$$-$$$$$$$$$$$&7777777777777777",
"777777777777777777&$$$$$$$$$$$=$$$$$$$$$$$&7777777777777777",
"777777777777777777&=$$$$$$$$$$=$$$$$$$$$$=&7777777777777777",
"7777777777777777777:$$$$$$$$$$=$$$$$$$$$$:77777777777777777",
"7777777777777777777&$$$$$$$$$$=$$$$$$$$$$&77777777777777777",
"7777777777777777777&$$$$$$$$$$=$$$$$$$$$$&77777777777777777",
"7777777777777777777&=$$$$$$$$$-$$$$$$$$$=&77777777777777777",
"77777777777777777777:$$$$$$$$*:*$$$$$$$$:777777777777777777",
"77777777777777777777&*$$$$$$$=&=$$$$$$$*&777777777777777777",
"77777777777777777777&=$$$$$$*=&=*$$$$$$=&777777777777777777",
"7777777777777777777.X:*$$$$$*=&=*$$$$$*:.777777777777777777",
"7777777777777777.XXXX&=*****==&==*****=&XXX.777777777777777",
"77777777777777.XXXXXX&========&========&XXXXX.7777777777777",
"777777777777.XXXXXXXXX:=======&=======:XXXXXXXX.77777777777",
"7777777777.XXXXXXXXXXX&=======&=======&XXXXXXXXXX.777777777",
"777777777.XXXXXXXXXXXX&=======&=======&XXXXXXXXXXX.77777777",
"77777777.XXXXXXXXXXXXX&=======&=======&XXXXXXXXXXXX.7777777",
"77777777XXXXXXXXXXXXXX&=======&=======&XXXXXXXXXXXXX7777777",
"7777777.XXXXXXXXXXXXXXX:======&======:XXXXXXXXXXXXXX.777777",
"7777777XXXXXXXXXXXXXXXX&=****=&=****=&XXXXXXXXXXXXXXX777777",
"7777777XXXXXXXXXXXXXXXX&******&******&XXXXXXXXXXXXXXX777777",
"7777777XXXXXXXXXXXXXXXX&**$$**&**$$**&XXXXXXXXXXXXXXX777777",
"7777777XXXXXXXXXXXXXXXX&=$$$$=&=$$$$=&XXXXXXXXXXXXXXX777777",
"7777777.XXXXXXXXXXXXXXXX&=**=&X&=**=&XXXXXXXXXXXXXXX.777777",
"77777777XXXXXXXXXXXXXXXXX&&&&XXX&&&&XXXXXXXXXXXXXXXX7777777",
"77777777.XXXXXXXXXXXXXXXXXXXXXXXXXXXXXXXXXXXXXXXXXX.7777777",
"777777777.XXXXXXXXXXXXXXXXXXXXXXXXXXXXXXXXXXXXXXXX.77777777",
"7777777777.XXXXXXXXXXXXXXXXXXXXXXXXXXXXXXXXXXXXXX.777777777",
"777777777777.XXXXXXXXXXXXXXXXXXXXXXXXXXXXXXXXXX.77777777777",
"77777777777777XXXXXXXXXXXXXXXXXXXXXXXXXXXXXXXX.777777777777",
"777777777777777.XXXXXXXXXXXXXXXXXXXXXXXXXXXX.77777777777777",
"777777777777777777.XXXXXXXXXXXXXXXXXXXXXX.77777777777777777",
"77777777777777777777777.XXXXXXXXXXXX.7777777777777777777777",
"77777777777777777777777777777777777777777777777777777777777",
"77777777777777777777777777777777777777777777777777777777777"
};
