/* XPM */
static char *_1079_bb4e67b501f9a5d70811052eb5ad4c88e614eadb5e0d9f417f2d19456487b31a_6[] = {
/* columns rows colors chars-per-pixel */
"59 105 32 1 ",
"  c black",
". c #5C5CA9",
"X c #3F3F74",
"o c #222034",
"O c #3C447C",
"+ c #4F5AA5",
"@ c #616FCB",
"# c #333A6C",
"$ c #FFE0B1",
"% c None",
"& c #45212D",
"* c #F9BF99",
"= c #F5A489",
"- c #CB7173",
"; c #9C859F",
": c #954A51",
"> c white",
", c #639BFF",
"< c #46426C",
"1 c #A6AEE1",
"2 c #6A78AC",
"3 c #E1EAFD",
"4 c #FFF3AB",
"5 c #7C8DB5",
"6 c #9CA2CC",
"7 c black",
"8 c black",
"9 c black",
"0 c black",
"q c black",
"w c black",
"e c black",
/* pixels */
"%%%%%%%%%%%%%%%%%%%%%%%%%%%%%%%%%%%%%%%%%%%%%%%%%%%%%%%%%%%",
"%%%%%%%%%%%%%%%%%%%%%%%%%%%%%%%%%%%%%%%%%%%%%%%%%%%%%%%%%%%",
"%%%%%%%%%%%%%%%%%%%%%%%%%%%%%%%%%%%%%%%%%%%%%%%%%%%%%%%%%%%",
"%%%%%%%%%%%%%%%%%%%%%%%%%%%%%%%%%%%%%%%%%%%%%%%%%%%%%%%%%%%",
"%%%%%%%%%%%%%%%%%%%%%%%%%%%%%%%%%%%%%%%%%%%%%%%%%%%%%%%%%%%",
"%%%%%%%%%%%%%%%%%%%%%%%%%%%%%%%%%%%%%%%%%%%%%%%%%%%%%%%%%%%",
"%%%%%%%%%%%%%%%%%%%%%%%%%%%%%%%%%%%%%%%%%%%%%%%%%%%%%%%%%%%",
"%%%%%%%%%%%%%%%%%%%%%%%%%%%%%%%%%%%%%%%%%%%%%%%%%%%%%%%%%%%",
"%%%%%%%%%%%%%%%%%%%%%%%%%%ooooooooo%%%%%%%%%%%%%%%%%%%%%%%%",
"%%%%%%%%%%%%%%%%%%%%%%%%oO+++OoO+++Oo%%%%%%%%%%%%%%%%%%%%%%",
"%%%%%%%%%%%%%%%%%%%%%%oO+@@@@+O+@@@@+Oo%%%%%%%%%%%%%%%%%%%%",
"%%%%%%%%%%%%%%%%%%%%%o@@@@@@@@+@@@@@@@@o%%%%%%%%%%%%%%%%%%%",
"%%%%%%%%%%%%%%%%%%%%o@@@@@@o#+++#o@@@@@@o%%%%%%%%%%%%%%%%%%",
"%%%%%%%%%%%%%%%%%%%o@@@@####+@@@+####@@@@o%%%%%%%%%%%%%%%%%",
"%%%%%%%%%%%%%%%%%%oO@@##+@@#@@@@@O+@+##@@Oo%%%%%%%%%%%%%%%%",
"%%%%%%%%%%%%%%%%%%#+@#+@@@@O@@@@@+O@@@+#@+#%%%%%%%%%%%%%%%%",
"%%%%%%%%%%%%%%%%%oO@@#@@+@@+@@@@@@O@@@@#@@Oo%%%%%%%%%%%%%%%",
"%%%%%%%%%%%%%%%%%#+@#+@@+@@+@@@@@@O@@@@+#@+#%%%%%%%%%%%%%%%",
"%%%%%%%%%%%%%%%%%O@+#@@+@@@+@@@@@@O@@@@@#+@O%%%%%%%%%%%%%%%",
"%%%%%%%%%%%%%%%%oO@O#@@+@@@+@@@@@@#+@@@@#O@Oo%%%%%%%%%%%%%%",
"%%%%%%%%%%%%%%%%oO+#+@@+@@@+@@@@@@#O+@@@+#+Oo%%%%%%%%%%%%%%",
"%%%%%%%%%%%%%%%%oOO#@@@+@@@O+@@@@@+o#@@@@#OOo%%%%%%%%%%%%%%",
"%%%%%%%%%%%%%%%%oOo+@@+#@@@O#@@@@@@o#+@@@+oOo%%%%%%%%%%%%%%",
"%%%%%%%%%%%%%%ooo#+@@@##@@+##+@@@@@o##@@@@+#ooo%%%%%%%%%%%%",
"%%%%%%%%%%%%%%o#++@@@+oo+@##o#+@@@@Oo##+@@@++#o%%%%%%%%%%%%",
"%%%%%%%%%%%%%%o++@@+##o###oo$oo#+@+OoO###+@@++o%%%%%%%%%%%%",
"%%%%%%%%%%%%%%%o#++##Ooooo*****oooooooOO##++#o%%%%%%%%%%%%%",
"%%%%%%%%%%%%%%%&o###Oo=====*******====ooO###o&%%%%%%%%%%%%%",
"%%%%%%%%%%%%%%o&=oooo-    -=*****=-    -oooo=&o%%%%%%%%%%%%",
"%%%%%%%%%%%%%%oO&oOOo      -*****-      oOOo&Oo%%%%%%%%%%%%",
"%%%%%%%%%%%%%%oOo#++#-&;    *$$$*    ;&-#++#oOo%%%%%%%%%%%%",
"%%%%%%%%%%%%%%oO#+@+o*:>XX>X$$$$$X>XX>:*o+@+#Oo%%%%%%%%%%%%",
"%%%%%%%%%%%%%%oO#@@O:$=>,XX,$$$$$,XX,>=$:O@@#Oo%%%%%%%%%%%%",
"%%%%%%%%%%%%%%oOo+@O&=$=>,,$$$$$$$,,>=$=&O@+oOo%%%%%%%%%%%%",
"%%%%%%%%%%%%%%#OO#@O+&=*=**$$$$$$$**=*=&+O@#OO#%%%%%%%%%%%%",
"%%%%%%%%%%%%%oOOOo+#++&=$$$$$$$$$$$$$=&++#+oOOOo%%%%%%%%%%%",
"%%%%%%%%%%%%%oOOO+oo+&o&=$$$$$$$$$$$=&o&+oo+OOOo%%%%%%%%%%%",
"%%%%%%%%%%%%%oOO+++&:=<o&:=$$-=-$$=:&o<=:&+++OOo%%%%%%%%%%%",
"%%%%%%%%%%%%%oO+++&=$=<1<-&:=$$$=:&-<1<=$=&+++Oo%%%%%%%%%%%",
"%%%%%%%%%%%%%#+++&$$$$<1<:--&&&&&--:<1<$$$$&+++#%%%%%%%%%%%",
"%%%%%%%%%%%%oO++&=$$$$<><=:-------:=<><$$$$=&++Oo%%%%%%%%%%",
"%%%%%%%%%%%%o+++:$$$$$2>2*$$$$$$$$$*2>2$$$$$:+++o%%%%%%%%%%",
"%%%%%%%%%%%%o++&=$$$$<133<**$$$$$**<331<$$$$=&++o%%%%%%%%%%",
"%%%%%%%%%%%%o++&$$$$<133332<*-:-*<233331<$$$$&++o%%%%%%%%%%",
"%%%%%%%%%%%%o++:$$$<333>>>>>2*-*2>>>>>333<$$$:++o%%%%%%%%%%",
"%%%%%%%%%%%%o+&=$$<33>>>>>>>32<23>>>>>>>33<$$=&+o%%%%%%%%%%",
"%%%%%%%%%%%%#+&$$<33>>>>>>>>>3>3>>>>>>>>>33<$$&+#%%%%%%%%%%",
"%%%%%%%%%%%oO@:$$23>>>>>>>>>>>3>>>>>>>>>>>32$$:@Oo%%%%%%%%%",
"%%%%%%%%%%o+@&=$<1>1333>>>>>>>>>>>>>>>3331>1<$=&@+o%%%%%%%%",
"%%%%%%%%%%oO+&$$<313>>>3>>>>>>3>>>>>>3>>>313<$$&+Oo%%%%%%%%",
"%%%%%%%%%%%oo:$$<3133>>3>>>>>>1>>>>>>3>>3313<$$:oo%%%%%%%%%",
"%%%%%%%%%%%%&=$$<1535>31>>>>31513>>>>13>5351<$$=&%%%%%%%%%%",
"%%%%%%%%%%%%:$$$<5512515333>>>>>>>3335152155<$$$:%%%%%%%%%%",
"%%%%%%%%%%%&=$$$$251111511133131331115111152$$$$=&%%%%%%%%%",
"%%%%%%%%%%%:$$$$$<25225111331>>>13311152252<$$$$=:%%%%%%%%%",
"%%%%%%%%%%&=$$$$$=<2551113331>3>1333111552<=$$$$$=&%%%%%%%%",
"%%%%%%%%%%:$$$$$$:%&<23>33313>3>31333>32<&%:$$$$$$:%%%%%%%%",
"%%%%%%%%%&=$$$$$=&%:==<<2313>>2>>3132<<==:%&=$$$$$=&%%%%%%%",
"%%%%%%%%%:$$$$$$:%&<$$$$$<<<<<2<<<<<$$$$$<&%:$$$$$$:%%%%%%%",
"%%%%%%%%&=$$$$$=&%<12<<<<$$$$$-$$$$$<<<<21<%&=$$$$$=&%%%%%%",
"%%%%%%%%:$$$$$$:%%<3>>>312<<$=:=$<<213>>>3<%%:$$$$$$:%%%%%%",
"%%%%%%%&=$$$$$=&%&<>>>>>>>312<<<213>>>>>>><&%&=$$$$$=&%%%%%",
"%%%%%%&=$$$$$$:%%&$<<213>>>>>>>>>>>>>312<<$&%%:$$$$$$=&%%%%",
"%%%%%&===$$$$=&%%:$$$$<<213>>>3>>>312<<$$$$:%%&=$$$$===&%%%",
"%%%%&-=======:%%&=$$$$$$$<213>1>312<$$$$$$$=&%%:=======-&%%",
"%%%&-==-==-==&%%&$$$$$$$$$<2115112<$$$$$$$$$&%%&==-==-==-&%",
"%%%&-=:===:==&%%&$$$$$$$$$$$<525<$$$$$$$$$$$&%%&==:===:=-&%",
"%%%&-:===:==-&%%&$$$$$$$$$$$$<<<$$$$$$$$$$$$&%%&-==:===:-&%",
"%%%%&--&:===&%%%&$$$$$$$$$$$$$:$$$$$$$$$$$$$&%%%&===:&--&%%",
"%%%%&&&%&--&%%%%&=$$$$$$$$$$$$-$$$$$$$$$$$$=&%%%%&--&%&&&%%",
"%%%%%%%%%&&%%%%%%:$$$$$$$$$$$$=$$$$$$$$$$$$:%%%%%%&&%%%%%%%",
"%%%%%%%%%%%%%%%%%&=$$$$$$$$$$$=$$$$$$$$$$$=&%%%%%%%%%%%%%%%",
"%%%%%%%%%%%%%%%%%%:$$$$$$$$$$$=$$$$$$$$$$$:%%%%%%%%%%%%%%%%",
"%%%%%%%%%%%%%%%%%%&=$$$$$$$$$$-$$$$$$$$$$=&%%%%%%%%%%%%%%%%",
"%%%%%%%%%%%%%%%%%%%:$$$$$$$$$$:$$$$$$$$$$:%%%%%%%%%%%%%%%%%",
"%%%%%%%%%%%%%%%%%%%&$$$$$$$$$$:$$$$$$$$$$&%%%%%%%%%%%%%%%%%",
"%%%%%%%%%%%%%%%%%%%&=$$$$$$$$$:$$$$$$$$$=&%%%%%%%%%%%%%%%%%",
"%%%%%%%%%%%%%%%%%%%%:*$$$$$$$*&*$$$$$$$*:%%%%%%%%%%%%%%%%%%",
"%%%%%%%%%%%%%%%%%%%%&*$$$$$$$=&=$$$$$$$*&%%%%%%%%%%%%%%%%%%",
"%%%%%%%%%%%%%%%%%%%%&=*$$$$$*=&=*$$$$$*=&%%%%%%%%%%%%%%%%%%",
"%%%%%%%%%%%%%%%%%%%.X:=*****==&==*****=:.%%%%%%%%%%%%%%%%%%",
"%%%%%%%%%%%%%%%%.XXXX&========&========&XXX.%%%%%%%%%%%%%%%",
"%%%%%%%%%%%%%%.XXXXXX&========&========&XXXXX.%%%%%%%%%%%%%",
"%%%%%%%%%%%%.XXXXXXXXX:=======&=======:XXXXXXXX.%%%%%%%%%%%",
"%%%%%%%%%%.XXXXXXXXXXX&=======&=======&XXXXXXXXXX.%%%%%%%%%",
"%%%%%%%%%.XXXXXXXXXXXX&=======&=======&XXXXXXXXXXX.%%%%%%%%",
"%%%%%%%%.XXXXXXXXXXXXX&=======&=======&XXXXXXXXXXXX.%%%%%%%",
"%%%%%%%%XXXXXXXXXXXXXX&=======&=======&XXXXXXXXXXXXX%%%%%%%",
"%%%%%%%.XXXXXXXXXXXXXXX:======&======:XXXXXXXXXXXXXX.%%%%%%",
"%%%%%%%XXXXXXXXXXXXXXXX&=****=&=****=&XXXXXXXXXXXXXXX%%%%%%",
"%%%%%%%XXXXXXXXXXXXXXXX&******&******&XXXXXXXXXXXXXXX%%%%%%",
"%%%%%%%XXXXXXXXXXXXXXXX&**$$**&**$$**&XXXXXXXXXXXXXXX%%%%%%",
"%%%%%%%XXXXXXXXXXXXXXXX&=$$$$=&=$$$$=&XXXXXXXXXXXXXXX%%%%%%",
"%%%%%%%.XXXXXXXXXXXXXXXX&=**=&X&=**=&XXXXXXXXXXXXXXX.%%%%%%",
"%%%%%%%%XXXXXXXXXXXXXXXXX&&&&XXX&&&&XXXXXXXXXXXXXXXX%%%%%%%",
"%%%%%%%%.XXXXXXXXXXXXXXXXXXXXXXXXXXXXXXXXXXXXXXXXXX.%%%%%%%",
"%%%%%%%%%.XXXXXXXXXXXXXXXXXXXXXXXXXXXXXXXXXXXXXXXX.%%%%%%%%",
"%%%%%%%%%%.XXXXXXXXXXXXXXXXXXXXXXXXXXXXXXXXXXXXXX.%%%%%%%%%",
"%%%%%%%%%%%%.XXXXXXXXXXXXXXXXXXXXXXXXXXXXXXXXXX.%%%%%%%%%%%",
"%%%%%%%%%%%%%%XXXXXXXXXXXXXXXXXXXXXXXXXXXXXXXX.%%%%%%%%%%%%",
"%%%%%%%%%%%%%%%.XXXXXXXXXXXXXXXXXXXXXXXXXXXX.%%%%%%%%%%%%%%",
"%%%%%%%%%%%%%%%%%%.XXXXXXXXXXXXXXXXXXXXXX.%%%%%%%%%%%%%%%%%",
"%%%%%%%%%%%%%%%%%%%%%%%.XXXXXXXXXXXX.%%%%%%%%%%%%%%%%%%%%%%",
"%%%%%%%%%%%%%%%%%%%%%%%%%%%%%%%%%%%%%%%%%%%%%%%%%%%%%%%%%%%",
"%%%%%%%%%%%%%%%%%%%%%%%%%%%%%%%%%%%%%%%%%%%%%%%%%%%%%%%%%%%"
};
