/* XPM */
static char *_1079_bb4e67b501f9a5d70811052eb5ad4c88e614eadb5e0d9f417f2d19456487b31a_3[] = {
/* columns rows colors chars-per-pixel */
"59 105 32 1 ",
"  c black",
". c #5C5CA9",
"X c #3F3F74",
"o c #222034",
"O c #3C447C",
"+ c #4F5AA5",
"@ c #616FCB",
"# c #333A6C",
"$ c #FFE0B1",
"% c None",
"& c #45212D",
"* c #F9BF99",
"= c #F5A489",
"- c #CB7173",
"; c #9C859F",
": c #954A51",
"> c white",
", c #639BFF",
"< c #46426C",
"1 c #A6AEE1",
"2 c #6A78AC",
"3 c #E1EAFD",
"4 c #FFF3AB",
"5 c #7C8DB5",
"6 c #9CA2CC",
"7 c black",
"8 c black",
"9 c black",
"0 c black",
"q c black",
"w c black",
"e c black",
/* pixels */
"%%%%%%%%%%%%%%%%%%%%%%%%%%%%%%%%%%%%%%%%%%%%%%%%%%%%%%%%%%%",
"%%%%%%%%%%%%%%%%%%%%%%%%%%%%%%%%%%%%%%%%%%%%%%%%%%%%%%%%%%%",
"%%%%%%%%%%%%%%%%%%%%%%%%%%%%%%%%%%%%%%%%%%%%%%%%%%%%%%%%%%%",
"%%%%%%%%%%%%%%%%%%%%%%%%%%%%%%%%%%%%%%%%%%%%%%%%%%%%%%%%%%%",
"%%%%%%%%%%%%%%%%%%%%%%%%%%%%%%%%%%%%%%%%%%%%%%%%%%%%%%%%%%%",
"%%%%%%%%%%%%%%%%%%%%%%%%%%ooooooooo%%%%%%%%%%%%%%%%%%%%%%%%",
"%%%%%%%%%%%%%%%%%%%%%%%%oO+++OoO+++Oo%%%%%%%%%%%%%%%%%%%%%%",
"%%%%%%%%%%%%%%%%%%%%%%oO+@@@@+O+@@@@+Oo%%%%%%%%%%%%%%%%%%%%",
"%%%%%%%%%%%%%%%%%%%%%o@@@@@@@@+@@@@@@@@o%%%%%%%%%%%%%%%%%%%",
"%%%%%%%%%%%%%%%%%%%%o@@@@@@o#+++#o@@@@@@o%%%%%%%%%%%%%%%%%%",
"%%%%%%%%%%%%%%%%%%%o@@@@####+@@@+####@@@@o%%%%%%%%%%%%%%%%%",
"%%%%%%%%%%%%%%%%%%oO@@##+@@#@@@@@O+@+##@@Oo%%%%%%%%%%%%%%%%",
"%%%%%%%%%%%%%%%%%%#+@#+@@@@O@@@@@+O@@@+#@+#%%%%%%%%%%%%%%%%",
"%%%%%%%%%%%%%%%%%oO@@#@@+@@+@@@@@@O@@@@#@@Oo%%%%%%%%%%%%%%%",
"%%%%%%%%%%%%%%%%%#+@#+@@+@@+@@@@@@O@@@@+#@+#%%%%%%%%%%%%%%%",
"%%%%%%%%%%%%%%%%%O@+#@@+@@@+@@@@@@O@@@@@#+@O%%%%%%%%%%%%%%%",
"%%%%%%%%%%%%%%%%oO@O#@@+@@@+@@@@@@#+@@@@#O@Oo%%%%%%%%%%%%%%",
"%%%%%%%%%%%%%%%%oO+#+@@+@@@+@@@@@@#O+@@@+#+Oo%%%%%%%%%%%%%%",
"%%%%%%%%%%%%%%%%oOO#@@@+@@@O+@@@@@+o#@@@@#OOo%%%%%%%%%%%%%%",
"%%%%%%%%%%%%%%%%oOo+@@+#@@@O#@@@@@@o#+@@@+oOo%%%%%%%%%%%%%%",
"%%%%%%%%%%%%%%ooo#+@@@##@@+##+@@@@@o##@@@@+#ooo%%%%%%%%%%%%",
"%%%%%%%%%%%%%%o#++@@@+oo+@##o#+@@@@Oo##+@@@++#o%%%%%%%%%%%%",
"%%%%%%%%%%%%%%o++@@+##o###oo$oo#+@+OoO###+@@++o%%%%%%%%%%%%",
"%%%%%%%%%%%%%%%o#++##Ooooo*****oooooooOO##++#o%%%%%%%%%%%%%",
"%%%%%%%%%%%%%%%&o###Oo=====*******====ooO###o&%%%%%%%%%%%%%",
"%%%%%%%%%%%%%%o&=oooo-    -=*****=-    -oooo=&o%%%%%%%%%%%%",
"%%%%%%%%%%%%%%oO&oOOo      -*****-      oOOo&Oo%%%%%%%%%%%%",
"%%%%%%%%%%%%%%oOo#++#-&;    *$$$*    ;&-#++#oOo%%%%%%%%%%%%",
"%%%%%%%%%%%%%%oO#+@+o*:>XX>X$$$$$X>XX>:*o+@+#Oo%%%%%%%%%%%%",
"%%%%%%%%%%%%%%#+#@@O:$=>,XX,$$$$$,XX,>=$:O@@#+#%%%%%%%%%%%%",
"%%%%%%%%%%%%%oO+o+@O&=$=>,,$$$$$$$,,>=$=&O@+o+Oo%%%%%%%%%%%",
"%%%%%%%%%%%%%o+++#@O+&=*=**$$$$$$$**=*=&+O@#+++o%%%%%%%%%%%",
"%%%%%%%%%%%%%#+++o+#++&=$$$$$$$$$$$$$=&++#+o+++#%%%%%%%%%%%",
"%%%%%%%%%%%%oO++++oo+++&=$$$$$$$$$$$=&+++oo++++Oo%%%%%%%%%%",
"%%%%%%%%%%%%o++++++++&oo&:=$$-=-$$=:&oo&++++++++o%%%%%%%%%%",
"%%%%%%%%%%%%#++++++&:=<1o-&:=$$$=:&-o1<=:&++++++#%%%%%%%%%%",
"%%%%%%%%%%%oO+++++&=$=<1<=--&&&&&--=<1<=$=&+++++Oo%%%%%%%%%",
"%%%%%%%%%%%o+++++&$$$$<3<:==-----==:<3<$$$$&+++++o%%%%%%%%%",
"%%%%%%%%%%%o++++&=$$$$<><=:-=---=-:=<><$$$$=&++++o%%%%%%%%%",
"%%%%%%%%%%%o++++:$$$$$<><*$$$$$$$$$*<><$$$$$:++++o%%%%%%%%%",
"%%%%%%%%%%%o+++&=$$$$-232**$$$$$$$**232-$$$$=&+++o%%%%%%%%%",
"%%%%%%%%%%%o+++&$$$$$<133<***-:-***<331<$$$$$&+++o%%%%%%%%%",
"%%%%%%%%%%%%O++:$$$$<133332<**:**<233331<$$$$:++O%%%%%%%%%%",
"%%%%%%%%%%%%o+&=$$$<333>>>>>22<22>>>>>333<$$$=&+o%%%%%%%%%%",
"%%%%%%%%%%%%%O&$$$<3>>>>>>>>>3>3>>>>>>>>>3<$$$&O%%%%%%%%%%%",
"%%%%%%%%%%%%%o:$$$2>>>>>>>>>>>3>>>>>>>>>>>2$$$:o%%%%%%%%%%%",
"%%%%%%%%%%%%%&=$$<5>>>>>>>>>>>>>>>>>>>>>>>5<$$=&%%%%%%%%%%%",
"%%%%%%%%%%%%%&$$$<1>>>>>>>>>>>3>>>>>>>>>>>1<$$$&%%%%%%%%%%%",
"%%%%%%%%%%%%%:$$$<3>>>>>>>>>>>1>>>>>>>>>>>3<$$$:%%%%%%%%%%%",
"%%%%%%%%%%%%&=$$$<3>>>333>>>31513>>>333>>>3<$$$=&%%%%%%%%%%",
"%%%%%%%%%%%%&$$$$<13>1>>>3>>>151>>>3>>>1>31<$$$$&%%%%%%%%%%",
"%%%%%%%%%%%%:$$$$$51313>>3>>>151>>>3>>31315$$$$$:%%%%%%%%%%",
"%%%%%%%%%%%&=$$$$$21153331333>>>33313335112$$$$$=&%%%%%%%%%",
"%%%%%%%%%%%&$$$$$$<11512151113331115121511<$$$$$$&%%%%%%%%%",
"%%%%%%%%%%%:$$$$$$<51515151331113315151515<$$$$$$:%%%%%%%%%",
"%%%%%%%%%%&=$$$$$=<2515253>>3>3>3>>3525152<=$$$$$=&%%%%%%%%",
"%%%%%%%%%%:$$$$$$:%&<23>33>>3>1>3>>33>32<&%:$$$$$$:%%%%%%%%",
"%%%%%%%%%&=$$$$$=&%<$$<<23>>3>2>3>>32<<$$<%&=$$$$$=&%%%%%%%",
"%%%%%%%%%:$$$$$$:%<12<<$$<<<<<2<<<<<$$<<21<%:$$$$$$:%%%%%%%",
"%%%%%%%%&=$$$$$=&%<3>312<$$$$$:$$$$$<213>3<%&=$$$$$=&%%%%%%",
"%%%%%%%&=$$$$$$:%%<21>>312<<$$-$$<<213>>12<%%:$$$$$$=&%%%%%",
"%%%%%%&===$$$$=&%&=<<213>>312<<<213>>312<<=&%&=$$$$===&%%%%",
"%%%%%&========:%%&$$$$<213>>>>>>>>>312<$$$$&%%:========&%%%",
"%%%%&-==-==-==&%%&$$$$$$<23>>>3>>>32<$$$$$$&%%&==-==-==-&%%",
"%%%%&-=:===:==&%%&$$$$$$$$<1331331<$$$$$$$$&%%&==:===:=-&%%",
"%%%%&-:===:==-&%%&$$$$$$$$$<11511<$$$$$$$$$&%%&-==:===:-&%%",
"%%%%%&--&:===&%%%&$$$$$$$$$$<525<$$$$$$$$$$&%%%&===:&--&%%%",
"%%%%%&&&%&--&%%%%&$$$$$$$$$$$<<<$$$$$$$$$$$&%%%%&--&%&&&%%%",
"%%%%%%%%%%&&%%%%%&=$$$$$$$$$$$:$$$$$$$$$$$=&%%%%%&&%%%%%%%%",
"%%%%%%%%%%%%%%%%%%:$$$$$$$$$$$-$$$$$$$$$$$:%%%%%%%%%%%%%%%%",
"%%%%%%%%%%%%%%%%%%&$$$$$$$$$$$-$$$$$$$$$$$&%%%%%%%%%%%%%%%%",
"%%%%%%%%%%%%%%%%%%&=$$$$$$$$$$=$$$$$$$$$$=&%%%%%%%%%%%%%%%%",
"%%%%%%%%%%%%%%%%%%%:$$$$$$$$$$=$$$$$$$$$$:%%%%%%%%%%%%%%%%%",
"%%%%%%%%%%%%%%%%%%%&$$$$$$$$$$=$$$$$$$$$$&%%%%%%%%%%%%%%%%%",
"%%%%%%%%%%%%%%%%%%%&$$$$$$$$$$-$$$$$$$$$$&%%%%%%%%%%%%%%%%%",
"%%%%%%%%%%%%%%%%%%%&$$$$$$$$$$-$$$$$$$$$$&%%%%%%%%%%%%%%%%%",
"%%%%%%%%%%%%%%%%%%%&=$$$$$$$$$:$$$$$$$$$=&%%%%%%%%%%%%%%%%%",
"%%%%%%%%%%%%%%%%%%%%:$$$$$$$$*&*$$$$$$$$:%%%%%%%%%%%%%%%%%%",
"%%%%%%%%%%%%%%%%%%%%&*$$$$$$$=&=$$$$$$$*&%%%%%%%%%%%%%%%%%%",
"%%%%%%%%%%%%%%%%%%%%&=$$$$$$*=&=*$$$$$$=&%%%%%%%%%%%%%%%%%%",
"%%%%%%%%%%%%%%%%%%%.X:=*$$$*==&==*$$$*=:.%%%%%%%%%%%%%%%%%%",
"%%%%%%%%%%%%%%%%.XXXX&==***===&===***==&XXX.%%%%%%%%%%%%%%%",
"%%%%%%%%%%%%%%.XXXXXX&========&========&XXXXX.%%%%%%%%%%%%%",
"%%%%%%%%%%%%.XXXXXXXXX:=======&=======:XXXXXXXX.%%%%%%%%%%%",
"%%%%%%%%%%.XXXXXXXXXXX&=======&=======&XXXXXXXXXX.%%%%%%%%%",
"%%%%%%%%%.XXXXXXXXXXXX&=======&=======&XXXXXXXXXXX.%%%%%%%%",
"%%%%%%%%.XXXXXXXXXXXXX&=======&=======&XXXXXXXXXXXX.%%%%%%%",
"%%%%%%%%XXXXXXXXXXXXXX&=======&=======&XXXXXXXXXXXXX%%%%%%%",
"%%%%%%%.XXXXXXXXXXXXXXX:======&======:XXXXXXXXXXXXXX.%%%%%%",
"%%%%%%%XXXXXXXXXXXXXXXX&=****=&=****=&XXXXXXXXXXXXXXX%%%%%%",
"%%%%%%%XXXXXXXXXXXXXXXX&******&******&XXXXXXXXXXXXXXX%%%%%%",
"%%%%%%%XXXXXXXXXXXXXXXX&**$$**&**$$**&XXXXXXXXXXXXXXX%%%%%%",
"%%%%%%%XXXXXXXXXXXXXXXX&=$$$$=&=$$$$=&XXXXXXXXXXXXXXX%%%%%%",
"%%%%%%%.XXXXXXXXXXXXXXXX&=**=&X&=**=&XXXXXXXXXXXXXXX.%%%%%%",
"%%%%%%%%XXXXXXXXXXXXXXXXX&&&&XXX&&&&XXXXXXXXXXXXXXXX%%%%%%%",
"%%%%%%%%.XXXXXXXXXXXXXXXXXXXXXXXXXXXXXXXXXXXXXXXXXX.%%%%%%%",
"%%%%%%%%%.XXXXXXXXXXXXXXXXXXXXXXXXXXXXXXXXXXXXXXXX.%%%%%%%%",
"%%%%%%%%%%.XXXXXXXXXXXXXXXXXXXXXXXXXXXXXXXXXXXXXX.%%%%%%%%%",
"%%%%%%%%%%%%.XXXXXXXXXXXXXXXXXXXXXXXXXXXXXXXXXX.%%%%%%%%%%%",
"%%%%%%%%%%%%%%XXXXXXXXXXXXXXXXXXXXXXXXXXXXXXXX.%%%%%%%%%%%%",
"%%%%%%%%%%%%%%%.XXXXXXXXXXXXXXXXXXXXXXXXXXXX.%%%%%%%%%%%%%%",
"%%%%%%%%%%%%%%%%%%.XXXXXXXXXXXXXXXXXXXXXX.%%%%%%%%%%%%%%%%%",
"%%%%%%%%%%%%%%%%%%%%%%%.XXXXXXXXXXXX.%%%%%%%%%%%%%%%%%%%%%%",
"%%%%%%%%%%%%%%%%%%%%%%%%%%%%%%%%%%%%%%%%%%%%%%%%%%%%%%%%%%%",
"%%%%%%%%%%%%%%%%%%%%%%%%%%%%%%%%%%%%%%%%%%%%%%%%%%%%%%%%%%%"
};
