/* XPM */
static char *_1079_bb4e67b501f9a5d70811052eb5ad4c88e614eadb5e0d9f417f2d19456487b31a_0[] = {
/* columns rows colors chars-per-pixel */
"59 105 32 1 ",
"  c black",
". c #5C5CA9",
"X c #3F3F74",
"o c #222034",
"O c #3C447C",
"+ c #4F5AA5",
"@ c #616FCB",
"# c #333A6C",
"$ c #FFE0B1",
"% c #8F563B",
"& c #45212D",
"* c #F9BF99",
"= c #F5A489",
"- c #CB7173",
"; c #9C859F",
": c #954A51",
"> c white",
", c #639BFF",
"< c #46426C",
"1 c #A6AEE1",
"2 c #6A78AC",
"3 c #E1EAFD",
"4 c #FFF3AB",
"5 c #7C8DB5",
"6 c None",
"7 c black",
"8 c black",
"9 c black",
"0 c black",
"q c black",
"w c black",
"e c black",
/* pixels */
"66666666666666666666666666666666666666666666666666666666666",
"66666666666666666666666666666666666666666666666666666666666",
"66666666666666666666666666666666666666666666666666666666666",
"66666666666666666666666666666666666666666666666666666666666",
"66666666666666666666666666666666666666666666666666666666666",
"66666666666666666666666666666666666666666666666666666666666",
"66666666666666666666666666ooooooooo666666666666666666666666",
"666666666666666666666666oO+++OoO+++Oo6666666666666666666666",
"6666666666666666666666oO+@@@@+O+@@@@+Oo66666666666666666666",
"666666666666666666666o@@@@@@@@+@@@@@@@@o6666666666666666666",
"66666666666666666666o@@@@@@o#+++#o@@@@@@o666666666666666666",
"6666666666666666666o@@@@####+@@@+####@@@@o66666666666666666",
"666666666666666666oO@@##+@@#@@@@@O+@+##@@Oo6666666666666666",
"666666666666666666#+@#+@@@@O@@@@@+O@@@+#@+#6666666666666666",
"66666666666666666oO@@#@@+@@+@@@@@@O@@@@#@@Oo666666666666666",
"66666666666666666#+@#+@@+@@+@@@@@@O@@@@+#@+#666666666666666",
"66666666666666666O@+#@@+@@@+@@@@@@O@@@@@#+@O666666666666666",
"6666666666666666oO@O#@@+@@@+@@@@@@#+@@@@#O@Oo66666666666666",
"6666666666666666oO+#+@@+@@@+@@@@@@#O+@@@+#+Oo66666666666666",
"6666666666666666oOO#@@@+@@@O+@@@@@+o#@@@@#OOo66666666666666",
"6666666666666666oOo+@@+#@@@O#+@@@@@o#+@@@+oOo66666666666666",
"66666666666666ooo#+@@@##@@+#o#@@@@@#o#@@@@+#ooo666666666666",
"66666666666666o#+@@@@+#o+@##$#+@@@@#o##+@@@@@+o666666666666",
"666666666666666o#+@+##Oo##Oo$o#+@@+#%o#######o6666666666666",
"666666666666666&o####Ooo#Oo***o#OO##**oOOOOOo&6666666666666",
"666666666666666&*oo#Oo==oo=*****oooo===ooooo*&6666666666666",
"666666666666666&=oOoo-    -=*****=-    -oOOo=&6666666666666",
"666666666666666o&#OOo      -*****-      #++#&o6666666666666",
"666666666666666o+#++#-&;    *$$$*    ;&-O++#+o6666666666666",
"666666666666666o+#@@O*:>XX>X$$$$$X>XX>:*O@@#+o6666666666666",
"666666666666666o+#@@O$=>,XX,$$$$$,XX,>=$O@@#+o6666666666666",
"666666666666666o+o+@O=$=>,,$$$$$$$,,>=$=O@+o+o6666666666666",
"666666666666666#++#@O&=*=**$$$$$$$**=*=&O@#++#6666666666666",
"66666666666666oO++o+#+&=$$$$$$$$$$$$$=&+#+o++Oo666666666666",
"66666666666666o++++oo++&=$$$$$$$$$$$=&++oo++++o666666666666",
"66666666666666o++++++&oo&:=$$-=-$$=:&oo&++++++o666666666666",
"66666666666666o++++&:=<1<-&:=$$$=:&-<1<=:&++++o666666666666",
"66666666666666o+++&=$=<1<=--&&&&&--=<1<=$=&+++o666666666666",
"66666666666666o++&$$$$<1<:==-----==:<1<$$$$&++o666666666666",
"66666666666666o+&=$$$$<><=:-=---=-:=<><$$$$=&+o666666666666",
"66666666666666o+:$$$$$<><*$$$$$$$$$*<><$$$$$:+o666666666666",
"66666666666666o&=$$$$-232***$$$$$***232-$$$$=&o666666666666",
"66666666666666o&$$$$$<133<***-4-***<331<$$$$$&o666666666666",
"66666666666666o:$$$$<133332<*=-=*<233331<$$$$:o666666666666",
"66666666666666&=$$$<333>>>>>2*-*2>>>>>333<$$$=&666666666666",
"66666666666666&$$$$23>>>>>>>32<23>>>>>>>32$$$$&666666666666",
"6666666666666o:$$$<3>>>>>>>>>3>3>>>>>>>>>3<$$$:o66666666666",
"666666666666o&=$$$2>>>>>>>>>>>3>>>>>>>>>>>2$$$=&o6666666666",
"666666666666o&$$$<1>3333>>>>>>>>>>>>>3333>1<$$$&o6666666666",
"6666666666666:$$$<31>>>>3>>>>>3>>>>>3>>>>13<$$$:66666666666",
"666666666666&=$$$<3131>>3>>>>>1>>>>>3>>1313<$$$=&6666666666",
"666666666666&$$$$<3535131>>>31513>>>1315353<$$$$&6666666666",
"666666666666:$$$$<151251533>>151>>335152151<$$$$:6666666666",
"66666666666&=$$$$<11522511133>>>33111522511<$$$$=&666666666",
"66666666666&$$$$$<25111111333>3>33311111152<$$$$$&666666666",
"66666666666:$$$$$$<25511133>3>3>3>33111552<$$$$$$:666666666",
"6666666666&=$$$$$=&&<23>33>>3>1>3>>33>32<&&=$$$$$=&66666666",
"6666666666&$$$$$$:6<==<<23>>3>2>3>>32<<==<6:$$$$$$&66666666",
"6666666666:$$$$$$&<12<<$$<<<<<2<<<<<$$<<21<&$$$$$$:66666666",
"666666666&=$$$$$=&<3>312<$$$$$:$$$$$<213>3<&=$$$$$=&6666666",
"666666666:$$$$$$:6<21>>312<<$$&$$<<213>>12<6:$$$$$$:6666666",
"66666666&=$$$$$$&&=<<213>>312<<<213>>312<<=&&$$$$$$=&666666",
"66666666:$$$$$$$&&$$$$<213>>>>>>>>>312<$$$$&&$$$$$$$:666666",
"6666666&-$$$$$$=&&$$$$$$<23>>>3>>>32<$$$$$$&&=$$$$$$-&66666",
"6666666:==$$$$$:6&$$$$$$$$<1331331<$$$$$$$$&6:$$$$$==:66666",
"666666&-=======&6&$$$$$$$$$<11511<$$$$$$$$$&6&=======-&6666",
"66666&-==-==-==&6&$$$$$$$$$$<525<$$$$$$$$$$&6&==-==-==-&666",
"66666&-=:===:==&6&$$$$$$$$$$$<<<$$$$$$$$$$$&6&==:===:=-&666",
"66666&-:===:==-&6&=$$$$$$$$$$$:$$$$$$$$$$$=&6&-==:===:-&666",
"666666:--&:===&666:$$$$$$$$$$$-$$$$$$$$$$$:666&===:&--&6666",
"666666&&&6&--&6666&$$$$$$$$$$$=$$$$$$$$$$$&6666&--&6&&&6666",
"66666666666&&66666&=$$$$$$$$$$=$$$$$$$$$$=&66666&&666666666",
"6666666666666666666:$$$$$$$$$$=$$$$$$$$$$:66666666666666666",
"6666666666666666666&$$$$$$$$$$=$$$$$$$$$$&66666666666666666",
"6666666666666666666&$$$$$$$$$$=$$$$$$$$$$&66666666666666666",
"6666666666666666666&$$$$$$$$$$-$$$$$$$$$$&66666666666666666",
"6666666666666666666&=$$$$$$$$$:$$$$$$$$$=&66666666666666666",
"66666666666666666666:$$$$$$$$*&*$$$$$$$$:666666666666666666",
"66666666666666666666&*$$$$$$$=&=$$$$$$$*&666666666666666666",
"66666666666666666666&=$$$$$$*=&=*$$$$$$=&666666666666666666",
"6666666666666666666.X:=*$$$*==&==*$$$*=:.666666666666666666",
"6666666666666666.XXXX&========&========&XXX.666666666666666",
"66666666666666.XXXXXX&========&========&XXXXX.6666666666666",
"666666666666.XXXXXXXXX:=======&=======:XXXXXXXX.66666666666",
"6666666666.XXXXXXXXXXX&=======&=======&XXXXXXXXXX.666666666",
"666666666.XXXXXXXXXXXX&=======&=======&XXXXXXXXXXX.66666666",
"66666666.XXXXXXXXXXXXX&=======&=======&XXXXXXXXXXXX.6666666",
"66666666XXXXXXXXXXXXXX&=======&=======&XXXXXXXXXXXXX6666666",
"6666666.XXXXXXXXXXXXXXX:======&======:XXXXXXXXXXXXXX.666666",
"6666666XXXXXXXXXXXXXXXX&=****=&=****=&XXXXXXXXXXXXXXX666666",
"6666666XXXXXXXXXXXXXXXX&******&******&XXXXXXXXXXXXXXX666666",
"6666666XXXXXXXXXXXXXXXX&**$$**&**$$**&XXXXXXXXXXXXXXX666666",
"6666666XXXXXXXXXXXXXXXX&=$$$$=&=$$$$=&XXXXXXXXXXXXXXX666666",
"6666666.XXXXXXXXXXXXXXXX&=**=&X&=**=&XXXXXXXXXXXXXXX.666666",
"66666666XXXXXXXXXXXXXXXXX&&&&XXX&&&&XXXXXXXXXXXXXXXX6666666",
"66666666.XXXXXXXXXXXXXXXXXXXXXXXXXXXXXXXXXXXXXXXXXX.6666666",
"666666666.XXXXXXXXXXXXXXXXXXXXXXXXXXXXXXXXXXXXXXXX.66666666",
"6666666666.XXXXXXXXXXXXXXXXXXXXXXXXXXXXXXXXXXXXXX.666666666",
"666666666666.XXXXXXXXXXXXXXXXXXXXXXXXXXXXXXXXXX.66666666666",
"66666666666666XXXXXXXXXXXXXXXXXXXXXXXXXXXXXXXX.666666666666",
"666666666666666.XXXXXXXXXXXXXXXXXXXXXXXXXXXX.66666666666666",
"666666666666666666.XXXXXXXXXXXXXXXXXXXXXX.66666666666666666",
"66666666666666666666666.XXXXXXXXXXXX.6666666666666666666666",
"66666666666666666666666666666666666666666666666666666666666",
"66666666666666666666666666666666666666666666666666666666666"
};
