/* XPM */
static char *_1079_bb4e67b501f9a5d70811052eb5ad4c88e614eadb5e0d9f417f2d19456487b31a_5[] = {
/* columns rows colors chars-per-pixel */
"59 105 32 1 ",
"  c black",
". c #5C5CA9",
"X c #3F3F74",
"o c #222034",
"O c #3C447C",
"+ c #4F5AA5",
"@ c #616FCB",
"# c #333A6C",
"$ c #FFE0B1",
"% c None",
"& c #45212D",
"* c #F9BF99",
"= c #F5A489",
"- c #CB7173",
"; c #9C859F",
": c #954A51",
"> c white",
", c #639BFF",
"< c #46426C",
"1 c #A6AEE1",
"2 c #6A78AC",
"3 c #E1EAFD",
"4 c #FFF3AB",
"5 c #7C8DB5",
"6 c #9CA2CC",
"7 c black",
"8 c black",
"9 c black",
"0 c black",
"q c black",
"w c black",
"e c black",
/* pixels */
"%%%%%%%%%%%%%%%%%%%%%%%%%%%%%%%%%%%%%%%%%%%%%%%%%%%%%%%%%%%",
"%%%%%%%%%%%%%%%%%%%%%%%%%%%%%%%%%%%%%%%%%%%%%%%%%%%%%%%%%%%",
"%%%%%%%%%%%%%%%%%%%%%%%%%%%%%%%%%%%%%%%%%%%%%%%%%%%%%%%%%%%",
"%%%%%%%%%%%%%%%%%%%%%%%%%%%%%%%%%%%%%%%%%%%%%%%%%%%%%%%%%%%",
"%%%%%%%%%%%%%%%%%%%%%%%%%%%%%%%%%%%%%%%%%%%%%%%%%%%%%%%%%%%",
"%%%%%%%%%%%%%%%%%%%%%%%%%%%%%%%%%%%%%%%%%%%%%%%%%%%%%%%%%%%",
"%%%%%%%%%%%%%%%%%%%%%%%%%%%%%%%%%%%%%%%%%%%%%%%%%%%%%%%%%%%",
"%%%%%%%%%%%%%%%%%%%%%%%%%%ooooooooo%%%%%%%%%%%%%%%%%%%%%%%%",
"%%%%%%%%%%%%%%%%%%%%%%%%oO+++OoO+++Oo%%%%%%%%%%%%%%%%%%%%%%",
"%%%%%%%%%%%%%%%%%%%%%%oO+@@@@+O+@@@@+Oo%%%%%%%%%%%%%%%%%%%%",
"%%%%%%%%%%%%%%%%%%%%%o@@@@@@@@+@@@@@@@@o%%%%%%%%%%%%%%%%%%%",
"%%%%%%%%%%%%%%%%%%%%o@@@@@@o#+++#o@@@@@@o%%%%%%%%%%%%%%%%%%",
"%%%%%%%%%%%%%%%%%%%o@@@@####+@@@+####@@@@o%%%%%%%%%%%%%%%%%",
"%%%%%%%%%%%%%%%%%%oO@@##+@@#@@@@@O+@+##@@Oo%%%%%%%%%%%%%%%%",
"%%%%%%%%%%%%%%%%%%#+@#+@@@@O@@@@@+O@@@+#@+#%%%%%%%%%%%%%%%%",
"%%%%%%%%%%%%%%%%%oO@@#@@+@@+@@@@@@O@@@@#@@Oo%%%%%%%%%%%%%%%",
"%%%%%%%%%%%%%%%%%#+@#+@@+@@+@@@@@@O+@@@+#@+#%%%%%%%%%%%%%%%",
"%%%%%%%%%%%%%%%%%O@+#@@+@@@+@@@@@@O#@@@@#+@O%%%%%%%%%%%%%%%",
"%%%%%%%%%%%%%%%%oO@O#@@+@@@O@@@@@@+#@@@@#O@Oo%%%%%%%%%%%%%%",
"%%%%%%%%%%%%%%%%oO+#+@@+@@@O+@@@@@@#+@@@+#+Oo%%%%%%%%%%%%%%",
"%%%%%%%%%%%%%%%%oOO#@@@+@@@oO@@@@@@o#@@@@#OOo%%%%%%%%%%%%%%",
"%%%%%%%%%%%%%%ooooo+@@+#@@@oO+@@@@@Oo+@@@+ooooo%%%%%%%%%%%%",
"%%%%%%%%%%%%%%o#+@@@@@##@@+o##@@@@@@Oo@@@@@@+#o%%%%%%%%%%%%",
"%%%%%%%%%%%%%%o#@@@@@+#o+@#oo#+@@@@@+o#+@@@@@#o%%%%%%%%%%%%",
"%%%%%%%%%%%%%%o++@@+##o##oo*$ooo#+++Oo###+@@++o%%%%%%%%%%%%",
"%%%%%%%%%%%%%%%o#++##Oooo*******ooooooOO##++#o%%%%%%%%%%%%%",
"%%%%%%%%%%%%%%%&o###Oo=====*******====ooO###o&%%%%%%%%%%%%%",
"%%%%%%%%%%%%%%o&=oooo-    -=*****=-    -oooo=&o%%%%%%%%%%%%",
"%%%%%%%%%%%%%%#O&oOOo      -*****-      oOOo&O#%%%%%%%%%%%%",
"%%%%%%%%%%%%%oOOo#++#-&;    *$$$*    ;&-#++#oOOo%%%%%%%%%%%",
"%%%%%%%%%%%%%#OO#+@+o*:>XX>X$$$$$X>XX>:*o+@+#OO#%%%%%%%%%%%",
"%%%%%%%%%%%%oOOO#@@O:$=>,XX,$$$$$,XX,>=$:O@@#OOOo%%%%%%%%%%",
"%%%%%%%%%%%%#OO+#@@o&=$=>,,$$$$$$$,,>=$=&o@@#+OO#%%%%%%%%%%",
"%%%%%%%%%%%oOO++#@+++&=*=**$$$$$$$**=*=&+++@#++OOo%%%%%%%%%",
"%%%%%%%%%%%o++++o+#+++&=$$$$$$$$$$$$$=&+++#+o++++o%%%%%%%%%",
"%%%%%%%%%%%#+++++oo++++&=$$$$$$$$$$$=&++++oo+++++#%%%%%%%%%",
"%%%%%%%%%%oO+++++++&&&oo&:=$$-=-$$=:&oo&&&+++++++Oo%%%%%%%%",
"%%%%%%%%%%#+++++++&:==<1<-&:=$$$=:&-<1<==:&+++++++#%%%%%%%%",
"%%%%%%%%%oO++++++&=$$=<1<=--&&&&&--=<1<=$$=&++++++Oo%%%%%%%",
"%%%%%%%%%o+++++++:$$$$<><:==-----==:<><$$$$:+++++++o%%%%%%%",
"%%%%%%%%%o++++++&=$$$$2>2=:-=---=-:=2>2$$$$=&++++++o%%%%%%%",
"%%%%%%%%%oO++++O:$$$$<133<$$$$$$$$$<331<$$$$:O++++Oo%%%%%%%",
"%%%%%%%%%%#++++&=$$$<133332<*=-=*<233331<$$$=&++++#%%%%%%%%",
"%%%%%%%%%%O++++&$$<23>>>>>>>2-:-2>>>>>>>32<$$&++++O%%%%%%%%",
"%%%%%%%%%%o++@O:$<3>>>>>>>>>32<23>>>>>>>>>3<$:O@++o%%%%%%%%",
"%%%%%%%%%%%O+@&=<3>>>>>>>>>>>3>3>>>>>>>>>>>3<=&@+O%%%%%%%%%",
"%%%%%%%%%%%oO@&<13>>>>>>>>>>>>3>>>>>>>>>>>>31<&@Oo%%%%%%%%%",
"%%%%%%%%%%%%o+:<3>>>333>>>>>>>>>>>>>>>333>>>3<:+o%%%%%%%%%%",
"%%%%%%%%%%%%%&=<3>>535>31>>>>>1>>>>>13>535>>3<=&%%%%%%%%%%%",
"%%%%%%%%%%%%%:$<13>512515>>>31513>>>515215>31<$:%%%%%%%%%%%",
"%%%%%%%%%%%%&=$$213352251>>>>>>>>>>>152253312$$=&%%%%%%%%%%",
"%%%%%%%%%%%%:$$$<513333333331333133333333315<$$$:%%%%%%%%%%",
"%%%%%%%%%%%&=$$$$2111111111113>3111111111112$$$$=&%%%%%%%%%",
"%%%%%%%%%%%:$$$$$<25111111313>>>31311111152<$$$$$:%%%%%%%%%",
"%%%%%%%%%%&=$$$$$$<255111313>>3>>313111552<$$$$$$=&%%%%%%%%",
"%%%%%%%%%%:$$$$$$=&%<23>313>>333>>313>32<%&=$$$$$$:%%%%%%%%",
"%%%%%%%%%&=$$$$$$:%<<=<<23>>33333>>32<<=<<%:$$$$$$=&%%%%%%%",
"%%%%%%%%%:$$$$$$=&<51<<$$<<<<<2<<<<<$$<<15<&=$$$$$$:%%%%%%%",
"%%%%%%%%&=$$$$$$:%<1>312<$$$$$-$$$$$<213>1<%:$$$$$$=&%%%%%%",
"%%%%%%%&=$$$$$$=&<21>>>312<$$=:=$$<213>>>12<&=$$$$$$=&%%%%%",
"%%%%%%&=$$$$$$$:%<<213>>>312<-&-<213>>>312<<%:$$$$$$$=&%%%%",
"%%%%%&==$$$$$$=&%&$$<<213>>312<213>>312<<$$&%&=$$$$$$==&%%%",
"%%%%&====$$$$$:%%:$$$$$<21>>>>>>>>>12<$$$$$:%%:$$$$$====&%%",
"%%%&-=========&%&=$$$$$$$23>>>3>>>32$$$$$$$=&%&=========-&%",
"%%&-==-==-===:%%&$$$$$$$$<23>>1>>32<$$$$$$$$&%%:===-==-==-&",
"%%&-=:===:==-&%%&$$$$$$$$$<1115111<$$$$$$$$$&%%&-==:===:=-&",
"%%&-:===:===&%%%&$$$$$$$$$$<25252<$$$$$$$$$$&%%%&===:===:-&",
"%%%&--&:===&%%%%&$$$$$$$$$$$$<<<$$$$$$$$$$$$&%%%%&===:&--&%",
"%%%&&&%&--&%%%%%&=$$$$$$$$$$$$:$$$$$$$$$$$$=&%%%%%&--&%&&&%",
"%%%%%%%%&&%%%%%%%:$$$$$$$$$$$$-$$$$$$$$$$$$:%%%%%%%&&%%%%%%",
"%%%%%%%%%%%%%%%%%&$$$$$$$$$$$$=$$$$$$$$$$$$&%%%%%%%%%%%%%%%",
"%%%%%%%%%%%%%%%%%&=$$$$$$$$$$$=$$$$$$$$$$$=&%%%%%%%%%%%%%%%",
"%%%%%%%%%%%%%%%%%%:$$$$$$$$$$$=$$$$$$$$$$$:%%%%%%%%%%%%%%%%",
"%%%%%%%%%%%%%%%%%%&=$$$$$$$$$$=$$$$$$$$$$=&%%%%%%%%%%%%%%%%",
"%%%%%%%%%%%%%%%%%%%:$$$$$$$$$$-$$$$$$$$$$:%%%%%%%%%%%%%%%%%",
"%%%%%%%%%%%%%%%%%%%&$$$$$$$$$$:$$$$$$$$$$&%%%%%%%%%%%%%%%%%",
"%%%%%%%%%%%%%%%%%%%&=$$$$$$$$$:$$$$$$$$$=&%%%%%%%%%%%%%%%%%",
"%%%%%%%%%%%%%%%%%%%%:$$$$$$$$*&*$$$$$$$$:%%%%%%%%%%%%%%%%%%",
"%%%%%%%%%%%%%%%%%%%%&*$$$$$$$=&=$$$$$$$*&%%%%%%%%%%%%%%%%%%",
"%%%%%%%%%%%%%%%%%%%%&=*$$$$$*=&=*$$$$$*=&%%%%%%%%%%%%%%%%%%",
"%%%%%%%%%%%%%%%%%%%.X:=*****==&==*****=:.%%%%%%%%%%%%%%%%%%",
"%%%%%%%%%%%%%%%%.XXXX&========&========&XXX.%%%%%%%%%%%%%%%",
"%%%%%%%%%%%%%%.XXXXXX&========&========&XXXXX.%%%%%%%%%%%%%",
"%%%%%%%%%%%%.XXXXXXXXX:=======&=======:XXXXXXXX.%%%%%%%%%%%",
"%%%%%%%%%%.XXXXXXXXXXX&=======&=======&XXXXXXXXXX.%%%%%%%%%",
"%%%%%%%%%.XXXXXXXXXXXX&=======&=======&XXXXXXXXXXX.%%%%%%%%",
"%%%%%%%%.XXXXXXXXXXXXX&=======&=======&XXXXXXXXXXXX.%%%%%%%",
"%%%%%%%%XXXXXXXXXXXXXX&=======&=======&XXXXXXXXXXXXX%%%%%%%",
"%%%%%%%.XXXXXXXXXXXXXXX:======&======:XXXXXXXXXXXXXX.%%%%%%",
"%%%%%%%XXXXXXXXXXXXXXXX&=****=&=****=&XXXXXXXXXXXXXXX%%%%%%",
"%%%%%%%XXXXXXXXXXXXXXXX&******&******&XXXXXXXXXXXXXXX%%%%%%",
"%%%%%%%XXXXXXXXXXXXXXXX&**$$**&**$$**&XXXXXXXXXXXXXXX%%%%%%",
"%%%%%%%XXXXXXXXXXXXXXXX&=$$$$=&=$$$$=&XXXXXXXXXXXXXXX%%%%%%",
"%%%%%%%.XXXXXXXXXXXXXXXX&=**=&X&=**=&XXXXXXXXXXXXXXX.%%%%%%",
"%%%%%%%%XXXXXXXXXXXXXXXXX&&&&XXX&&&&XXXXXXXXXXXXXXXX%%%%%%%",
"%%%%%%%%.XXXXXXXXXXXXXXXXXXXXXXXXXXXXXXXXXXXXXXXXXX.%%%%%%%",
"%%%%%%%%%.XXXXXXXXXXXXXXXXXXXXXXXXXXXXXXXXXXXXXXXX.%%%%%%%%",
"%%%%%%%%%%.XXXXXXXXXXXXXXXXXXXXXXXXXXXXXXXXXXXXXX.%%%%%%%%%",
"%%%%%%%%%%%%.XXXXXXXXXXXXXXXXXXXXXXXXXXXXXXXXXX.%%%%%%%%%%%",
"%%%%%%%%%%%%%%XXXXXXXXXXXXXXXXXXXXXXXXXXXXXXXX.%%%%%%%%%%%%",
"%%%%%%%%%%%%%%%.XXXXXXXXXXXXXXXXXXXXXXXXXXXX.%%%%%%%%%%%%%%",
"%%%%%%%%%%%%%%%%%%.XXXXXXXXXXXXXXXXXXXXXX.%%%%%%%%%%%%%%%%%",
"%%%%%%%%%%%%%%%%%%%%%%%.XXXXXXXXXXXX.%%%%%%%%%%%%%%%%%%%%%%",
"%%%%%%%%%%%%%%%%%%%%%%%%%%%%%%%%%%%%%%%%%%%%%%%%%%%%%%%%%%%",
"%%%%%%%%%%%%%%%%%%%%%%%%%%%%%%%%%%%%%%%%%%%%%%%%%%%%%%%%%%%"
};
